<svg width="24" height="24" viewBox="0 0 24 24" fill="none" xmlns="http://www.w3.org/2000/svg">
<path d="M7.73591 4.39765L14.6524 11.4251C14.8041 11.5785 14.8892 11.7855 14.8892 12.0011C14.8892 12.2168 14.8041 12.4238 14.6524 12.5771L7.73741 19.6046C7.5858 19.7589 7.50084 19.9666 7.50084 20.1829C7.50084 20.3992 7.5858 20.6069 7.73741 20.7611C7.81148 20.8371 7.9 20.8975 7.99777 20.9387C8.09553 20.9799 8.20056 21.0012 8.30666 21.0012C8.41276 21.0012 8.51779 20.9799 8.61556 20.9387C8.71332 20.8975 8.80185 20.8371 8.87591 20.7611L15.7909 13.7351C16.2453 13.2724 16.4999 12.6497 16.4999 12.0011C16.4999 11.3526 16.2453 10.7299 15.7909 10.2671L8.87591 3.24115C8.80182 3.16494 8.71321 3.10437 8.6153 3.06301C8.5174 3.02165 8.41219 3.00034 8.30591 3.00034C8.19963 3.00034 8.09443 3.02165 7.99652 3.06301C7.89862 3.10437 7.81 3.16494 7.73591 3.24115C7.5843 3.39543 7.49934 3.60309 7.49934 3.8194C7.49934 4.03571 7.5843 4.24336 7.73591 4.39765Z" fill="black"/>
</svg>
