<svg width="36" height="36" viewBox="0 0 36 36" fill="none" xmlns="http://www.w3.org/2000/svg">
<path d="M24.6983 21.4258C22.759 23.365 20.3941 24.3336 17.5906 24.3336C14.7871 24.3336 12.4222 23.365 10.483 21.4258C8.5437 19.4865 7.57515 17.1217 7.57515 14.3181C7.57515 11.5146 8.5437 9.14972 10.483 7.21046C12.4222 5.27121 14.7871 4.30265 17.5906 4.30265C20.3941 4.30265 22.759 5.27121 24.6983 7.21046C26.6375 9.14972 27.6061 11.5146 27.6061 14.3181C27.6061 17.1217 26.6375 19.4865 24.6983 21.4258Z" fill="#FAF4F2" stroke="#203152" stroke-width="0.423606"/>
<path d="M9.05324 33.2514V22.2935V22.2084L8.9943 22.1469C7.90105 21.0069 7.12117 19.7618 6.65016 18.4114C6.1757 17.0511 5.93904 15.6805 5.93904 14.2987C5.93904 10.9963 7.05553 8.23812 9.28767 6.00964C11.5198 3.78115 14.2827 2.66636 17.5909 2.66636C20.899 2.66636 23.6619 3.78115 25.8941 6.00964C28.1262 8.23812 29.2427 10.9963 29.2427 14.2987C29.2427 15.6805 29.006 17.0511 28.5316 18.4114C28.0606 19.7618 27.2807 21.0069 26.1874 22.1469L26.1285 22.2084V22.2935V33.2514L17.658 30.4206L17.5909 30.3981L17.5237 30.4206L9.05324 33.2514ZM10.8541 30.7243L11.129 30.6386L17.5909 28.6225L24.0528 30.6386L24.3277 30.7243V30.4364V24.1072V23.6924L23.9917 23.9356C23.0225 24.6371 21.9822 25.1441 20.87 25.4579C19.7502 25.7738 18.6573 25.9311 17.5909 25.9311C16.5244 25.9311 15.4316 25.7738 14.3117 25.4579C13.1995 25.1441 12.1592 24.6371 11.1901 23.9356L10.8541 23.6924V24.1072V30.4364V30.7243ZM17.654 28.1985L17.5909 28.1788L17.5278 28.1985L11.2777 30.1484V24.5126C12.1898 25.1226 13.163 25.5739 14.1967 25.8655C15.3508 26.1912 16.4823 26.3547 17.5909 26.3547C18.6994 26.3547 19.831 26.1912 20.985 25.8655C22.0187 25.5739 22.9919 25.1226 23.9041 24.5126V30.1484L17.654 28.1985ZM17.5909 24.1339C20.3397 24.1339 22.6739 23.1811 24.5806 21.2775C26.4874 19.3739 27.4419 17.0433 27.4419 14.2987C27.4419 11.5541 26.4874 9.22353 24.5806 7.31993C22.6739 5.41634 20.3397 4.46354 17.5909 4.46354C14.8421 4.46354 12.5078 5.41634 10.6011 7.31993C8.69437 9.22353 7.73986 11.5541 7.73986 14.2987C7.73986 17.0433 8.69437 19.3739 10.6011 21.2775C12.5078 23.1811 14.8421 24.1339 17.5909 24.1339Z" fill="#203152" stroke="#203152" stroke-width="0.423606"/>
<path d="M18.421 7.92695C18.0839 7.23455 17.0973 7.23455 16.7602 7.92694L15.0685 11.4015L11.0962 11.8477C10.2987 11.9373 9.98705 12.9314 10.5907 13.4603L13.4929 16.0029L12.7181 19.6972C12.5574 20.4634 13.3631 21.0695 14.0547 20.7028L17.5906 18.8277L21.1264 20.7028C21.8181 21.0695 22.6238 20.4634 22.4631 19.6972L21.6883 16.0029L24.5905 13.4603C25.1942 12.9314 24.8825 11.9373 24.085 11.8477L20.1127 11.4015L18.421 7.92695ZM21.6791 15.9592C21.6791 15.9592 21.6791 15.9593 21.6791 15.9594L21.6791 15.9592Z" fill="#F5D549" stroke="#203152"/>
</svg>
