<svg width="127" height="113" viewBox="0 0 127 113" fill="none" xmlns="http://www.w3.org/2000/svg">
<g filter="url(#filter0_d_1_1756)">
<path d="M86.3498 4.91316H41.2556C35.9208 4.91316 31.5724 9.30611 31.7738 14.626C31.814 15.694 31.8543 16.762 31.9147 17.8099H10.656C7.97852 17.8099 5.82446 19.9661 5.82446 22.6462C5.82446 41.3062 12.5685 54.2835 21.6276 63.0896C30.5457 71.7747 41.4167 76.1475 49.429 78.3641C54.1397 79.674 57.3607 83.6034 57.3607 87.5531C57.3607 91.7647 53.9384 95.1903 49.7309 95.1903H44.4766C40.9134 95.1903 38.0346 98.072 38.0346 101.639C38.0346 105.205 40.9134 108.087 44.4766 108.087H83.1288C86.6921 108.087 89.5708 105.205 89.5708 101.639C89.5708 98.072 86.6921 95.1903 83.1288 95.1903H77.8745C73.6671 95.1903 70.2448 91.7647 70.2448 87.5531C70.2448 83.6034 73.4456 79.6538 78.1765 78.3641C86.2089 76.1475 97.0798 71.7747 105.998 63.0896C115.037 54.2835 121.781 41.3062 121.781 22.6462C121.781 19.9661 119.627 17.8099 116.949 17.8099H95.6908C95.7512 16.762 95.7914 15.7142 95.8317 14.626C96.033 9.30611 91.6846 4.91316 86.3498 4.91316ZM15.6888 27.4825H32.6595C34.4915 45.6386 38.5379 57.7696 43.1077 65.8906C38.095 63.6739 32.881 60.5505 28.3716 56.1576C21.9295 49.8905 16.6954 40.8427 15.6888 27.4825ZM99.254 56.1576C94.7446 60.5505 89.5306 63.6739 84.5179 65.8906C89.0877 57.7696 93.1341 45.6386 94.966 27.4825H111.957C110.93 40.8427 105.696 49.8905 99.2741 56.1576H99.254Z" fill="#F5D549"/>
<path d="M32.7731 14.5883L32.773 14.5882C32.5938 9.85231 36.4705 5.91316 41.2556 5.91316H86.3498C91.135 5.91316 95.0116 9.85231 94.8324 14.5882L94.8324 14.589C94.7921 15.6776 94.7522 16.716 94.6924 17.7524L94.6315 18.8099H95.6908H116.949C119.074 18.8099 120.781 20.5174 120.781 22.6462C120.781 41.0366 114.146 53.7555 105.3 62.3731C96.5485 70.8963 85.8557 75.2074 77.9118 77.3998C72.8313 78.7855 69.2448 83.0709 69.2448 87.5531C69.2448 92.316 73.1139 96.1903 77.8745 96.1903H83.1288C86.1388 96.1903 88.5708 98.6233 88.5708 101.639C88.5708 104.654 86.1388 107.087 83.1288 107.087H44.4766C41.4666 107.087 39.0346 104.654 39.0346 101.639C39.0346 98.6233 41.4666 96.1903 44.4766 96.1903H49.7309C54.4916 96.1903 58.3607 92.316 58.3607 87.5531C58.3607 83.0659 54.7487 78.8054 49.6968 77.4007L49.6956 77.4003C41.7712 75.208 31.0776 70.8968 22.3253 62.3731L22.3246 62.3725C13.4596 53.7551 6.82446 41.0366 6.82446 22.6462C6.82446 20.5174 8.53173 18.8099 10.656 18.8099H31.9147H32.974L32.913 17.7524C32.8533 16.7161 32.8134 15.6581 32.7731 14.5883ZM15.6888 26.4825H14.6106L14.6916 27.5576C15.7172 41.1699 21.0638 50.4434 27.6743 56.8743C32.2887 61.3695 37.6107 64.5532 42.7033 66.8051L45.4544 68.0217L43.9792 65.4002C39.494 57.4296 35.4766 45.4405 33.6545 27.3821L33.5637 26.4825H32.6595H15.6888ZM83.6464 65.4002L82.1712 68.0217L84.9223 66.8051C89.9072 64.6008 95.112 61.5036 99.6578 57.1576H99.6812L99.9726 56.8732C106.562 50.4428 111.908 41.1703 112.954 27.5591L113.037 26.4825H111.957H94.966H94.0619L93.9711 27.3821C92.149 45.4405 88.1316 57.4296 83.6464 65.4002Z" stroke="#203152" stroke-width="2"/>
</g>
<defs>
<filter id="filter0_d_1_1756" x="5.82446" y="4.91316" width="115.957" height="107.174" filterUnits="userSpaceOnUse" color-interpolation-filters="sRGB">
<feFlood flood-opacity="0" result="BackgroundImageFix"/>
<feColorMatrix in="SourceAlpha" type="matrix" values="0 0 0 0 0 0 0 0 0 0 0 0 0 0 0 0 0 0 127 0" result="hardAlpha"/>
<feOffset dy="4"/>
<feComposite in2="hardAlpha" operator="out"/>
<feColorMatrix type="matrix" values="0 0 0 0 0.12549 0 0 0 0 0.192157 0 0 0 0 0.321569 0 0 0 1 0"/>
<feBlend mode="normal" in2="BackgroundImageFix" result="effect1_dropShadow_1_1756"/>
<feBlend mode="normal" in="SourceGraphic" in2="effect1_dropShadow_1_1756" result="shape"/>
</filter>
</defs>
</svg>
