<svg width="157" height="26" viewBox="0 0 157 26" fill="none" xmlns="http://www.w3.org/2000/svg">
<g filter="url(#filter0_d_1_1526)">
<path d="M18.094 0H8.04404C6.8551 0 5.88599 1.01883 5.93086 2.25264C5.93983 2.50034 5.94881 2.74804 5.96227 2.99106H1.22443C0.627709 2.99106 0.147644 3.49113 0.147644 4.11271C0.147644 8.4404 1.65065 11.4502 3.66962 13.4925C5.65718 15.5068 8.07994 16.5209 9.8656 17.035C10.9155 17.3388 11.6333 18.2501 11.6333 19.1662C11.6333 20.1429 10.8706 20.9374 9.9329 20.9374H8.7619C7.96777 20.9374 7.32619 21.6057 7.32619 22.433C7.32619 23.2602 7.96777 23.9285 8.7619 23.9285H17.3762C18.1703 23.9285 18.8119 23.2602 18.8119 22.433C18.8119 21.6057 18.1703 20.9374 17.3762 20.9374H16.2052C15.2675 20.9374 14.5047 20.1429 14.5047 19.1662C14.5047 18.2501 15.2181 17.3341 16.2725 17.035C18.0626 16.5209 20.4854 15.5068 22.4729 13.4925C24.4874 11.4502 25.9904 8.4404 25.9904 4.11271C25.9904 3.49113 25.5103 2.99106 24.9136 2.99106H20.1758C20.1892 2.74804 20.1982 2.50501 20.2072 2.25264C20.2521 1.01883 19.283 0 18.094 0ZM2.34607 5.23436H6.12827C6.53655 9.44521 7.43835 12.2587 8.45681 14.1421C7.33965 13.628 6.17762 12.9036 5.17263 11.8848C3.73692 10.4313 2.5704 8.33291 2.34607 5.23436ZM20.9699 11.8848C19.9649 12.9036 18.8029 13.628 17.6857 14.1421C18.7042 12.2587 19.606 9.44521 20.0143 5.23436H23.801C23.5721 8.33291 22.4056 10.4313 20.9744 11.8848H20.9699Z" fill="url(#paint0_linear_1_1526)"/>
<path d="M6.12103 2.24575L6.12103 2.24573C6.07993 1.11539 6.96712 0.190297 8.04404 0.190297H18.094C19.1709 0.190297 20.0581 1.11539 20.017 2.24573L20.017 2.24588C20.008 2.49833 19.9991 2.73962 19.9858 2.98054L19.9747 3.18136H20.1758H24.9136C25.398 3.18136 25.8001 3.58883 25.8001 4.11271C25.8001 8.39154 24.316 11.3529 22.3375 13.3588C20.3814 15.3412 17.9929 16.3429 16.2205 16.8519C15.0956 17.1711 14.3144 18.1538 14.3144 19.1662C14.3144 20.2406 15.1551 21.1277 16.2052 21.1277H17.3762C18.0579 21.1277 18.6216 21.7034 18.6216 22.433C18.6216 23.1625 18.0579 23.7382 17.3762 23.7382H8.7619C8.08012 23.7382 7.51649 23.1625 7.51649 22.433C7.51649 21.7034 8.08012 21.1277 8.7619 21.1277H9.9329C10.9829 21.1277 11.8236 20.2406 11.8236 19.1662C11.8236 18.1529 11.0371 17.1759 9.91849 16.8522L9.91825 16.8522C8.15019 16.3431 5.7614 15.3415 3.80507 13.3588L3.80495 13.3587C1.82206 11.3529 0.337941 8.39155 0.337941 4.11271C0.337941 3.58883 0.740054 3.18136 1.22443 3.18136H5.96227H6.16339L6.15227 2.98054C6.13893 2.73964 6.13002 2.49378 6.12103 2.24575ZM2.34607 5.04406H2.1415L2.15627 5.2481C2.38392 8.39243 3.57009 10.5332 5.03715 12.0184C6.06186 13.0572 7.24445 13.7937 8.37726 14.315L8.89561 14.5535L8.6242 14.0516C7.62095 12.1963 6.72423 9.40906 6.31768 5.21599L6.30101 5.04406H6.12827H2.34607ZM17.5183 14.0516L17.2469 14.5535L17.7653 14.315C18.8774 13.8032 20.0375 13.0841 21.049 12.0751H21.0541L21.11 12.0183C22.5724 10.5332 23.7585 8.39258 23.9907 5.24837L24.0058 5.04406H23.801H20.0143H19.8415L19.8249 5.21599C19.4183 9.40906 18.5216 12.1963 17.5183 14.0516Z" stroke="#203152" stroke-width="0.380593"/>
</g>
<path d="M34.6381 15.364V18.982C34.5301 19.006 34.3741 19.036 34.1701 19.072C33.9781 19.108 33.7681 19.126 33.5401 19.126C33.0841 19.126 32.7601 19.042 32.5681 18.874C32.3881 18.706 32.2981 18.424 32.2981 18.028V8.992C32.2981 8.764 32.3581 8.59 32.4781 8.47C32.5981 8.35 32.7661 8.254 32.9821 8.182C33.1741 8.122 33.3841 8.068 33.6121 8.02C33.8521 7.972 34.0981 7.936 34.3501 7.912C34.6021 7.876 34.8541 7.852 35.1061 7.84C35.3581 7.828 35.5981 7.822 35.8261 7.822C37.4101 7.822 38.5981 8.164 39.3901 8.848C40.1941 9.52 40.5961 10.432 40.5961 11.584C40.5961 12.736 40.2061 13.654 39.4261 14.338C38.6461 15.022 37.5181 15.364 36.0421 15.364H34.6381ZM35.8981 13.492C36.6181 13.492 37.1821 13.336 37.5901 13.024C38.0101 12.712 38.2201 12.232 38.2201 11.584C38.2201 10.96 38.0221 10.492 37.6261 10.18C37.2421 9.868 36.6781 9.712 35.9341 9.712C35.4181 9.712 34.9801 9.748 34.6201 9.82V13.492H35.8981ZM44.776 18.982C44.68 19.006 44.536 19.036 44.344 19.072C44.164 19.108 43.966 19.126 43.75 19.126C43.318 19.126 43 19.048 42.796 18.892C42.604 18.736 42.508 18.46 42.508 18.064V7.3C42.604 7.264 42.742 7.234 42.922 7.21C43.114 7.174 43.318 7.156 43.534 7.156C43.966 7.156 44.278 7.234 44.47 7.39C44.674 7.546 44.776 7.822 44.776 8.218V18.982ZM50.5293 17.542C50.8773 17.542 51.1953 17.512 51.4833 17.452C51.7713 17.38 51.9813 17.296 52.1133 17.2V15.202L50.3673 15.364C49.8873 15.412 49.5213 15.52 49.2693 15.688C49.0173 15.844 48.8913 16.096 48.8913 16.444C48.8913 16.792 49.0173 17.062 49.2693 17.254C49.5333 17.446 49.9533 17.542 50.5293 17.542ZM50.4573 10.216C51.6333 10.216 52.5693 10.468 53.2653 10.972C53.9733 11.476 54.3273 12.256 54.3273 13.312V17.47C54.3273 17.758 54.2553 17.986 54.1113 18.154C53.9673 18.322 53.7873 18.472 53.5713 18.604C53.2353 18.808 52.8093 18.97 52.2933 19.09C51.7773 19.21 51.1893 19.27 50.5293 19.27C49.3293 19.27 48.3813 19.042 47.6853 18.586C47.0013 18.118 46.6593 17.422 46.6593 16.498C46.6593 15.694 46.9113 15.082 47.4153 14.662C47.9313 14.23 48.6753 13.966 49.6473 13.87L52.1133 13.618V13.294C52.1133 12.838 51.9453 12.502 51.6093 12.286C51.2853 12.07 50.8233 11.962 50.2233 11.962C49.7553 11.962 49.2993 12.022 48.8553 12.142C48.4113 12.25 48.0153 12.388 47.6673 12.556C47.5353 12.46 47.4213 12.334 47.3253 12.178C47.2413 12.01 47.1993 11.83 47.1993 11.638C47.1993 11.398 47.2533 11.206 47.3613 11.062C47.4813 10.906 47.6673 10.768 47.9193 10.648C48.2673 10.504 48.6633 10.396 49.1073 10.324C49.5513 10.252 50.0013 10.216 50.4573 10.216ZM58.8536 16.354C58.8536 16.738 58.9676 17.014 59.1956 17.182C59.4356 17.35 59.7656 17.434 60.1856 17.434C60.3896 17.434 60.5936 17.41 60.7976 17.362C61.0136 17.314 61.2056 17.254 61.3736 17.182C61.4696 17.278 61.5476 17.398 61.6076 17.542C61.6796 17.674 61.7156 17.83 61.7156 18.01C61.7156 18.37 61.5536 18.67 61.2296 18.91C60.9056 19.138 60.3836 19.252 59.6636 19.252C58.7156 19.252 57.9656 19.042 57.4136 18.622C56.8736 18.19 56.6036 17.482 56.6036 16.498V8.236C56.6996 8.212 56.8376 8.182 57.0176 8.146C57.2096 8.11 57.4136 8.092 57.6296 8.092C58.0496 8.092 58.3556 8.17 58.5476 8.326C58.7516 8.482 58.8536 8.758 58.8536 9.154V10.648H61.4996C61.5596 10.744 61.6136 10.87 61.6616 11.026C61.7096 11.182 61.7336 11.35 61.7336 11.53C61.7336 11.842 61.6616 12.07 61.5176 12.214C61.3736 12.358 61.1816 12.43 60.9416 12.43H58.8536V16.354ZM63.5834 10.54C63.6794 10.516 63.8174 10.486 63.9974 10.45C64.1894 10.414 64.3934 10.396 64.6094 10.396C65.0414 10.396 65.3534 10.474 65.5454 10.63C65.7494 10.786 65.8514 11.062 65.8514 11.458V18.982C65.7554 19.006 65.6114 19.036 65.4194 19.072C65.2394 19.108 65.0414 19.126 64.8254 19.126C64.3934 19.126 64.0754 19.048 63.8714 18.892C63.6794 18.736 63.5834 18.46 63.5834 18.064V10.54ZM63.4034 7.93C63.4034 7.582 63.5234 7.288 63.7634 7.048C64.0154 6.796 64.3334 6.67 64.7174 6.67C65.1014 6.67 65.4134 6.796 65.6534 7.048C65.8934 7.288 66.0134 7.582 66.0134 7.93C66.0134 8.29 65.8934 8.596 65.6534 8.848C65.4134 9.088 65.1014 9.208 64.7174 9.208C64.3334 9.208 64.0154 9.088 63.7634 8.848C63.5234 8.596 63.4034 8.29 63.4034 7.93ZM73.8563 13.51C73.8563 12.994 73.7063 12.616 73.4063 12.376C73.1183 12.136 72.7223 12.016 72.2183 12.016C71.8703 12.016 71.5463 12.058 71.2463 12.142C70.9583 12.226 70.7063 12.334 70.4903 12.466V18.982C70.3823 19.006 70.2383 19.036 70.0583 19.072C69.8783 19.108 69.6743 19.126 69.4463 19.126C69.0263 19.126 68.7143 19.048 68.5103 18.892C68.3063 18.736 68.2043 18.46 68.2043 18.064V12.286C68.2043 11.998 68.2643 11.764 68.3843 11.584C68.5043 11.404 68.6903 11.23 68.9423 11.062C69.2903 10.822 69.7523 10.624 70.3283 10.468C70.9043 10.3 71.5403 10.216 72.2363 10.216C73.4723 10.216 74.4263 10.492 75.0983 11.044C75.7823 11.584 76.1243 12.382 76.1243 13.438V18.982C76.0283 19.006 75.8843 19.036 75.6923 19.072C75.5123 19.108 75.3143 19.126 75.0983 19.126C74.6663 19.126 74.3483 19.048 74.1443 18.892C73.9523 18.736 73.8563 18.46 73.8563 18.064V13.51ZM86.3372 17.326C86.3372 17.602 86.2892 17.836 86.1932 18.028C86.0972 18.208 85.9232 18.37 85.6712 18.514C85.3232 18.73 84.8792 18.91 84.3392 19.054C83.8112 19.198 83.2052 19.27 82.5212 19.27C81.8972 19.27 81.3332 19.198 80.8292 19.054C80.3252 18.922 79.8932 18.712 79.5332 18.424C79.1732 18.136 78.8972 17.77 78.7052 17.326C78.5132 16.882 78.4172 16.354 78.4172 15.742V10.504C78.5132 10.468 78.6512 10.438 78.8312 10.414C79.0232 10.378 79.2332 10.36 79.4612 10.36C79.8812 10.36 80.1932 10.438 80.3972 10.594C80.6012 10.738 80.7032 11.014 80.7032 11.422V15.706C80.7032 16.33 80.8592 16.78 81.1712 17.056C81.4952 17.32 81.9512 17.452 82.5392 17.452C82.9112 17.452 83.2232 17.416 83.4752 17.344C83.7392 17.272 83.9372 17.194 84.0692 17.11V10.504C84.1652 10.468 84.3032 10.438 84.4832 10.414C84.6752 10.378 84.8792 10.36 85.0952 10.36C85.5272 10.36 85.8392 10.438 86.0312 10.594C86.2352 10.738 86.3372 11.014 86.3372 11.422V17.326ZM101.303 18.982C101.207 19.006 101.063 19.036 100.871 19.072C100.691 19.108 100.493 19.126 100.277 19.126C99.8445 19.126 99.5265 19.048 99.3225 18.892C99.1305 18.736 99.0345 18.46 99.0345 18.064V13.384C99.0345 12.904 98.9025 12.556 98.6385 12.34C98.3745 12.124 98.0265 12.016 97.5945 12.016C97.3065 12.016 97.0245 12.07 96.7485 12.178C96.4845 12.286 96.2505 12.43 96.0465 12.61C96.0825 12.778 96.1005 12.946 96.1005 13.114V18.982C96.0045 19.006 95.8605 19.036 95.6685 19.072C95.4885 19.108 95.2905 19.126 95.0745 19.126C94.6425 19.126 94.3245 19.048 94.1205 18.892C93.9285 18.736 93.8325 18.46 93.8325 18.064V13.384C93.8325 12.904 93.6945 12.556 93.4185 12.34C93.1425 12.124 92.7885 12.016 92.3565 12.016C92.0565 12.016 91.7805 12.064 91.5285 12.16C91.2765 12.256 91.0665 12.352 90.8985 12.448V18.982C90.7905 19.006 90.6465 19.036 90.4665 19.072C90.2865 19.108 90.0825 19.126 89.8545 19.126C89.4345 19.126 89.1225 19.048 88.9185 18.892C88.7145 18.736 88.6125 18.46 88.6125 18.064V12.286C88.6125 12.01 88.6725 11.782 88.7925 11.602C88.9125 11.41 89.0985 11.23 89.3505 11.062C89.7105 10.822 90.1665 10.624 90.7185 10.468C91.2705 10.3 91.8405 10.216 92.4285 10.216C93.5205 10.216 94.4085 10.51 95.0925 11.098C95.4405 10.846 95.8365 10.636 96.2805 10.468C96.7365 10.3 97.2705 10.216 97.8825 10.216C98.3505 10.216 98.7945 10.276 99.2145 10.396C99.6345 10.504 99.9945 10.684 100.295 10.936C100.607 11.188 100.853 11.512 101.033 11.908C101.213 12.292 101.303 12.754 101.303 13.294V18.982ZM106.959 11.044C106.791 10.96 106.635 10.834 106.491 10.666C106.347 10.498 106.275 10.27 106.275 9.982C106.275 9.454 106.605 9.064 107.265 8.812L109.533 7.93H110.037C110.421 7.93 110.727 8.044 110.955 8.272C111.183 8.488 111.297 8.788 111.297 9.172V19C111.189 19.024 111.039 19.054 110.847 19.09C110.667 19.126 110.469 19.144 110.253 19.144C109.821 19.144 109.503 19.066 109.299 18.91C109.107 18.754 109.011 18.478 109.011 18.082V10.234L106.959 11.044ZM120.44 13.528C120.44 12.208 120.224 11.236 119.792 10.612C119.372 9.976 118.832 9.658 118.172 9.658C117.512 9.658 116.972 9.976 116.552 10.612C116.132 11.248 115.922 12.22 115.922 13.528C115.922 14.812 116.114 15.784 116.498 16.444C116.894 17.092 117.452 17.416 118.172 17.416C118.892 17.416 119.45 17.092 119.846 16.444C120.242 15.784 120.44 14.812 120.44 13.528ZM118.172 19.27C117.5 19.27 116.882 19.15 116.318 18.91C115.766 18.67 115.286 18.316 114.878 17.848C114.482 17.368 114.17 16.768 113.942 16.048C113.726 15.328 113.618 14.488 113.618 13.528C113.618 12.556 113.738 11.71 113.978 10.99C114.218 10.27 114.542 9.676 114.95 9.208C115.358 8.728 115.838 8.374 116.39 8.146C116.942 7.918 117.536 7.804 118.172 7.804C118.808 7.804 119.402 7.924 119.954 8.164C120.506 8.392 120.986 8.74 121.394 9.208C121.814 9.676 122.144 10.27 122.384 10.99C122.624 11.71 122.744 12.556 122.744 13.528C122.744 14.488 122.63 15.328 122.402 16.048C122.186 16.756 121.874 17.35 121.466 17.83C121.058 18.31 120.572 18.67 120.008 18.91C119.456 19.15 118.844 19.27 118.172 19.27ZM131.145 13.528C131.145 12.208 130.929 11.236 130.497 10.612C130.077 9.976 129.537 9.658 128.877 9.658C128.217 9.658 127.677 9.976 127.257 10.612C126.837 11.248 126.627 12.22 126.627 13.528C126.627 14.812 126.819 15.784 127.203 16.444C127.599 17.092 128.157 17.416 128.877 17.416C129.597 17.416 130.155 17.092 130.551 16.444C130.947 15.784 131.145 14.812 131.145 13.528ZM128.877 19.27C128.205 19.27 127.587 19.15 127.023 18.91C126.471 18.67 125.991 18.316 125.583 17.848C125.187 17.368 124.875 16.768 124.647 16.048C124.431 15.328 124.323 14.488 124.323 13.528C124.323 12.556 124.443 11.71 124.683 10.99C124.923 10.27 125.247 9.676 125.655 9.208C126.063 8.728 126.543 8.374 127.095 8.146C127.647 7.918 128.241 7.804 128.877 7.804C129.513 7.804 130.107 7.924 130.659 8.164C131.211 8.392 131.691 8.74 132.099 9.208C132.519 9.676 132.849 10.27 133.089 10.99C133.329 11.71 133.449 12.556 133.449 13.528C133.449 14.488 133.335 15.328 133.107 16.048C132.891 16.756 132.579 17.35 132.171 17.83C131.763 18.31 131.277 18.67 130.713 18.91C130.161 19.15 129.549 19.27 128.877 19.27ZM143.024 19.252C142.676 19.252 142.352 19.216 142.052 19.144C141.764 19.084 141.5 19.006 141.26 18.91V22.222C141.152 22.246 141.008 22.276 140.828 22.312C140.648 22.348 140.444 22.366 140.216 22.366C139.796 22.366 139.484 22.288 139.28 22.132C139.076 21.976 138.974 21.7 138.974 21.304V12.178C138.974 11.89 139.028 11.656 139.136 11.476C139.256 11.296 139.442 11.128 139.694 10.972C140.042 10.768 140.474 10.594 140.99 10.45C141.506 10.294 142.088 10.216 142.736 10.216C143.396 10.216 144.002 10.306 144.554 10.486C145.118 10.654 145.604 10.924 146.012 11.296C146.42 11.656 146.738 12.118 146.966 12.682C147.194 13.246 147.308 13.918 147.308 14.698C147.308 15.454 147.2 16.114 146.984 16.678C146.768 17.242 146.468 17.716 146.084 18.1C145.712 18.484 145.262 18.772 144.734 18.964C144.218 19.156 143.648 19.252 143.024 19.252ZM142.682 17.434C143.402 17.434 143.966 17.212 144.374 16.768C144.782 16.324 144.986 15.634 144.986 14.698C144.986 13.726 144.776 13.036 144.356 12.628C143.936 12.22 143.396 12.016 142.736 12.016C142.412 12.016 142.124 12.058 141.872 12.142C141.632 12.226 141.422 12.316 141.242 12.412V17.038C141.434 17.158 141.644 17.254 141.872 17.326C142.112 17.398 142.382 17.434 142.682 17.434ZM149.207 16.912C149.519 16.528 149.831 16.15 150.143 15.778C150.467 15.406 150.791 15.028 151.115 14.644C150.659 14.104 150.221 13.582 149.801 13.078C149.393 12.562 148.973 12.034 148.541 11.494C148.613 11.146 148.751 10.87 148.955 10.666C149.171 10.45 149.435 10.342 149.747 10.342C150.047 10.342 150.281 10.414 150.449 10.558C150.617 10.702 150.803 10.906 151.007 11.17C151.247 11.506 151.493 11.854 151.745 12.214C152.009 12.574 152.279 12.934 152.555 13.294C152.939 12.79 153.305 12.304 153.653 11.836C154.013 11.368 154.379 10.876 154.751 10.36C154.811 10.348 154.859 10.342 154.895 10.342C154.931 10.342 154.973 10.342 155.021 10.342C155.429 10.342 155.753 10.432 155.993 10.612C156.233 10.792 156.353 11.026 156.353 11.314C156.353 11.542 156.299 11.746 156.191 11.926C156.095 12.106 155.915 12.346 155.651 12.646L153.905 14.68C154.337 15.256 154.769 15.82 155.201 16.372C155.633 16.912 156.065 17.464 156.497 18.028C156.449 18.376 156.317 18.652 156.101 18.856C155.885 19.06 155.621 19.162 155.309 19.162C154.973 19.15 154.703 19.054 154.499 18.874C154.295 18.694 154.091 18.46 153.887 18.172C153.647 17.836 153.401 17.494 153.149 17.146C152.897 16.798 152.651 16.45 152.411 16.102C152.039 16.606 151.673 17.11 151.313 17.614C150.953 18.118 150.599 18.622 150.251 19.126H149.927C149.483 19.126 149.141 19.03 148.901 18.838C148.673 18.646 148.559 18.412 148.559 18.136C148.559 17.944 148.607 17.77 148.703 17.614C148.799 17.446 148.967 17.212 149.207 16.912Z" fill="#203152"/>
<defs>
<filter id="filter0_d_1_1526" x="0.147644" y="0" width="25.8428" height="24.8351" filterUnits="userSpaceOnUse" color-interpolation-filters="sRGB">
<feFlood flood-opacity="0" result="BackgroundImageFix"/>
<feColorMatrix in="SourceAlpha" type="matrix" values="0 0 0 0 0 0 0 0 0 0 0 0 0 0 0 0 0 0 127 0" result="hardAlpha"/>
<feOffset dy="0.906634"/>
<feComposite in2="hardAlpha" operator="out"/>
<feColorMatrix type="matrix" values="0 0 0 0 0.12549 0 0 0 0 0.192157 0 0 0 0 0.321569 0 0 0 1 0"/>
<feBlend mode="normal" in2="BackgroundImageFix" result="effect1_dropShadow_1_1526"/>
<feBlend mode="normal" in="SourceGraphic" in2="effect1_dropShadow_1_1526" result="shape"/>
</filter>
<linearGradient id="paint0_linear_1_1526" x1="4.83698" y1="4.6425e-07" x2="19.9136" y2="22.16" gradientUnits="userSpaceOnUse">
<stop stop-color="#F9F9F9"/>
<stop offset="1" stop-color="#98938E"/>
</linearGradient>
</defs>
</svg>
