<svg width="36" height="36" viewBox="0 0 36 36" fill="none" xmlns="http://www.w3.org/2000/svg">
<g filter="url(#filter0_d_1_326)">
<path d="M24.4622 0H11.0622C9.47696 0 8.18482 1.35844 8.24465 3.00352C8.25661 3.33379 8.26857 3.66405 8.28652 3.98808H1.9694C1.17378 3.98808 0.533691 4.65484 0.533691 5.48361C0.533691 11.2539 2.5377 15.2669 5.22966 17.99C7.87974 20.6757 11.1101 22.0279 13.491 22.7134C14.8908 23.1184 15.8479 24.3335 15.8479 25.5549C15.8479 26.8572 14.831 27.9166 13.5807 27.9166H12.0194C10.9605 27.9166 10.1051 28.8076 10.1051 29.9106C10.1051 31.0136 10.9605 31.9046 12.0194 31.9046H23.505C24.5639 31.9046 25.4193 31.0136 25.4193 29.9106C25.4193 28.8076 24.5639 27.9166 23.505 27.9166H21.9437C20.6934 27.9166 19.6765 26.8572 19.6765 25.5549C19.6765 24.3335 20.6276 23.1122 22.0334 22.7134C24.4203 22.0279 27.6506 20.6757 30.3007 17.99C32.9867 15.2669 34.9907 11.2539 34.9907 5.48361C34.9907 4.65484 34.3506 3.98808 33.555 3.98808H27.2379C27.2558 3.66405 27.2678 3.34002 27.2798 3.00352C27.3396 1.35844 26.0474 0 24.4622 0ZM3.46493 6.97914H8.50786C9.05223 12.5936 10.2546 16.3449 11.6126 18.8561C10.123 18.1707 8.57366 17.2048 7.23367 15.8464C5.31939 13.9084 3.76404 11.1105 3.46493 6.97914ZM28.2967 15.8464C26.9567 17.2048 25.4073 18.1707 23.9178 18.8561C25.2757 16.3449 26.4781 12.5936 27.0225 6.97914H32.0714C31.7663 11.1105 30.211 13.9084 28.3027 15.8464H28.2967Z" fill="#F5D549"/>
<path d="M8.54666 2.99258L8.54666 2.99254C8.49281 1.5118 9.65487 0.302211 11.0622 0.302211H24.4622C25.8695 0.302211 27.0316 1.5118 26.9777 2.99254L26.9777 2.99279C26.9658 3.3294 26.9539 3.65068 26.9361 3.97137L26.9185 4.29029H27.2379H33.555C34.1722 4.29029 34.6885 4.81 34.6885 5.48361C34.6885 11.1763 32.7145 15.1125 30.0856 17.7778C27.4855 20.4128 24.3096 21.7452 21.951 22.4226C20.4331 22.8532 19.3743 24.1806 19.3743 25.5549C19.3743 27.0124 20.515 28.2188 21.9437 28.2188H23.505C24.3855 28.2188 25.1171 28.9628 25.1171 29.9106C25.1171 30.8584 24.3855 31.6024 23.505 31.6024H12.0194C11.1389 31.6024 10.4073 30.8584 10.4073 29.9106C10.4073 28.9628 11.1389 28.2188 12.0194 28.2188H13.5807C15.0094 28.2188 16.1501 27.0124 16.1501 25.5549C16.1501 24.1791 15.0839 22.8597 13.575 22.4231L13.5746 22.4229C11.2217 21.7455 8.04526 20.4132 5.44477 17.7777L5.44458 17.7775C2.80992 15.1124 0.835903 11.1763 0.835903 5.48361C0.835903 4.81 1.35219 4.29029 1.9694 4.29029H8.28652H8.60593L8.58827 3.97137C8.57051 3.65071 8.55864 3.32336 8.54666 2.99258ZM3.46493 6.67693H3.14005L3.16351 7.00096C3.46788 11.2051 5.05446 14.0702 7.01852 16.0586C8.38981 17.4488 9.97185 18.4338 11.4862 19.1307L12.3094 19.5095L11.8784 18.7124C10.5446 16.2458 9.35029 12.5362 8.80866 6.94998L8.78218 6.67693H8.50786H3.46493ZM23.652 18.7124L23.2209 19.5095L24.0441 19.1307C25.5257 18.4489 27.0719 17.4914 28.4222 16.1486H28.4292L28.518 16.0584C30.4759 14.0702 32.0624 11.2053 32.3728 7.0014L32.3968 6.67693H32.0714H27.0225H26.7482L26.7217 6.94998C26.1801 12.5362 24.9858 16.2458 23.652 18.7124Z" stroke="#203152" stroke-width="0.604423"/>
</g>
<defs>
<filter id="filter0_d_1_326" x="0.533691" y="0" width="34.457" height="33.1135" filterUnits="userSpaceOnUse" color-interpolation-filters="sRGB">
<feFlood flood-opacity="0" result="BackgroundImageFix"/>
<feColorMatrix in="SourceAlpha" type="matrix" values="0 0 0 0 0 0 0 0 0 0 0 0 0 0 0 0 0 0 127 0" result="hardAlpha"/>
<feOffset dy="1.20885"/>
<feComposite in2="hardAlpha" operator="out"/>
<feColorMatrix type="matrix" values="0 0 0 0 0.12549 0 0 0 0 0.192157 0 0 0 0 0.321569 0 0 0 1 0"/>
<feBlend mode="normal" in2="BackgroundImageFix" result="effect1_dropShadow_1_326"/>
<feBlend mode="normal" in="SourceGraphic" in2="effect1_dropShadow_1_326" result="shape"/>
</filter>
</defs>
</svg>
