<svg width="26" height="26" viewBox="0 0 26 26" fill="none" xmlns="http://www.w3.org/2000/svg">
<g clip-path="url(#clip0_1_1524)">
<g filter="url(#filter0_d_1_1524)">
<path d="M17.8466 0H7.79667C6.60772 0 5.63862 1.01883 5.68348 2.25264C5.69246 2.50034 5.70143 2.74804 5.71489 2.99106H0.97705C0.380334 2.99106 -0.0997314 3.49113 -0.0997314 4.11271C-0.0997314 8.4404 1.40328 11.4502 3.42224 13.4925C5.4098 15.5068 7.83256 16.5209 9.61822 17.035C10.6681 17.3388 11.3859 18.2501 11.3859 19.1662C11.3859 20.1429 10.6232 20.9374 9.68552 20.9374H8.51452C7.7204 20.9374 7.07881 21.6057 7.07881 22.433C7.07881 23.2602 7.7204 23.9285 8.51452 23.9285H17.1288C17.9229 23.9285 18.5645 23.2602 18.5645 22.433C18.5645 21.6057 17.9229 20.9374 17.1288 20.9374H15.9578C15.0201 20.9374 14.2574 20.1429 14.2574 19.1662C14.2574 18.2501 14.9707 17.3341 16.0251 17.035C17.8152 16.5209 20.238 15.5068 22.2255 13.4925C24.24 11.4502 25.743 8.4404 25.743 4.11271C25.743 3.49113 25.263 2.99106 24.6662 2.99106H19.9284C19.9419 2.74804 19.9508 2.50501 19.9598 2.25264C20.0047 1.01883 19.0356 0 17.8466 0ZM2.0987 5.23436H5.88089C6.28917 9.44521 7.19098 12.2587 8.20943 14.1421C7.09227 13.628 5.93025 12.9036 4.92525 11.8848C3.48954 10.4313 2.32303 8.33291 2.0987 5.23436ZM20.7225 11.8848C19.7175 12.9036 18.5555 13.628 17.4384 14.1421C18.4568 12.2587 19.3586 9.44521 19.7669 5.23436H23.5536C23.3248 8.33291 22.1582 10.4313 20.727 11.8848H20.7225Z" fill="#F5D549"/>
<path d="M5.90999 2.24444L5.90999 2.24441C5.86961 1.13385 6.74115 0.226658 7.79667 0.226658H17.8466C18.9021 0.226658 19.7737 1.13385 19.7333 2.24441L19.7333 2.24459C19.7243 2.49705 19.7154 2.73801 19.7021 2.97853L19.6889 3.21772H19.9284H24.6662C25.1292 3.21772 25.5164 3.6075 25.5164 4.11271C25.5164 8.3822 24.0359 11.3344 22.0642 13.3333C20.1139 15.3098 17.7317 16.3091 15.9627 16.8171C14.8246 17.1402 14.0307 18.1356 14.0307 19.1662C14.0307 20.2593 14.8863 21.1641 15.9578 21.1641H17.1288C17.7891 21.1641 18.3378 21.7221 18.3378 22.433C18.3378 23.1438 17.7891 23.7018 17.1288 23.7018H8.51452C7.85421 23.7018 7.30547 23.1438 7.30547 22.433C7.30547 21.7221 7.85421 21.1641 8.51452 21.1641H9.68552C10.757 21.1641 11.6126 20.2593 11.6126 19.1662C11.6126 18.1344 10.813 17.1448 9.68122 16.8173L9.68093 16.8172C7.91624 16.3092 5.53394 15.3099 3.58358 13.3333L3.58343 13.3331C1.60744 11.3343 0.126927 8.38222 0.126927 4.11271C0.126927 3.6075 0.514145 3.21772 0.97705 3.21772H5.71489H5.95445L5.9412 2.97853C5.92788 2.73804 5.91898 2.49252 5.90999 2.24444ZM2.0987 5.0077H1.85504L1.87263 5.25072C2.10091 8.4038 3.29084 10.5527 4.76389 12.044C5.79236 13.0866 6.97889 13.8253 8.11468 14.348L8.73208 14.6321L8.40881 14.0343C7.40847 12.1844 6.51272 9.40215 6.10649 5.21248L6.08664 5.0077H5.88089H2.0987ZM17.239 14.0343L16.9157 14.6321L17.5331 14.348C18.6442 13.8367 19.8039 13.1186 20.8167 12.1115H20.8219L20.8885 12.0438C22.3569 10.5526 23.5468 8.40399 23.7796 5.25105L23.7976 5.0077H23.5536H19.7669H19.5611L19.5413 5.21248C19.1351 9.40215 18.2393 12.1844 17.239 14.0343Z" stroke="#203152" stroke-width="0.453317"/>
</g>
</g>
<defs>
<filter id="filter0_d_1_1524" x="-0.0997314" y="0" width="25.8428" height="24.8351" filterUnits="userSpaceOnUse" color-interpolation-filters="sRGB">
<feFlood flood-opacity="0" result="BackgroundImageFix"/>
<feColorMatrix in="SourceAlpha" type="matrix" values="0 0 0 0 0 0 0 0 0 0 0 0 0 0 0 0 0 0 127 0" result="hardAlpha"/>
<feOffset dy="0.906634"/>
<feComposite in2="hardAlpha" operator="out"/>
<feColorMatrix type="matrix" values="0 0 0 0 0.12549 0 0 0 0 0.192157 0 0 0 0 0.321569 0 0 0 1 0"/>
<feBlend mode="normal" in2="BackgroundImageFix" result="effect1_dropShadow_1_1524"/>
<feBlend mode="normal" in="SourceGraphic" in2="effect1_dropShadow_1_1524" result="shape"/>
</filter>
<clipPath id="clip0_1_1524">
<rect width="26" height="26" fill="white"/>
</clipPath>
</defs>
</svg>
