<svg width="127" height="113" viewBox="0 0 127 113" fill="none" xmlns="http://www.w3.org/2000/svg">
<g filter="url(#filter0_d_59_557)">
<path d="M86.3499 4.91315H41.2557C35.9209 4.91315 31.5725 9.3061 31.7738 14.626C31.8141 15.694 31.8543 16.762 31.9147 17.8099H10.656C7.97858 17.8099 5.82452 19.9661 5.82452 22.6462C5.82452 41.3061 12.5685 54.2835 21.6276 63.0895C30.5458 71.7747 41.4167 76.1475 49.429 78.3641C54.1397 79.6739 57.3608 83.6034 57.3608 87.553C57.3608 91.7646 53.9384 95.1903 49.731 95.1903H44.4767C40.9135 95.1903 38.0347 98.0719 38.0347 101.639C38.0347 105.205 40.9135 108.087 44.4767 108.087H83.1289C86.6921 108.087 89.5709 105.205 89.5709 101.639C89.5709 98.0719 86.6921 95.1903 83.1289 95.1903H77.8746C73.6671 95.1903 70.2448 91.7646 70.2448 87.553C70.2448 83.6034 73.4457 79.6538 78.1766 78.3641C86.209 76.1475 97.0799 71.7747 105.998 63.0895C115.037 54.2835 121.781 41.3061 121.781 22.6462C121.781 19.9661 119.627 17.8099 116.95 17.8099H95.6908C95.7512 16.762 95.7915 15.7142 95.8318 14.626C96.0331 9.3061 91.6847 4.91315 86.3499 4.91315ZM15.6889 27.4824H32.6596C34.4916 45.6386 38.538 57.7696 43.1078 65.8905C38.0951 63.6739 32.881 60.5505 28.3716 56.1575C21.9296 49.8905 16.6954 40.8427 15.6889 27.4824ZM99.2541 56.1575C94.7447 60.5505 89.5306 63.6739 84.5179 65.8905C89.0877 57.7696 93.1341 45.6386 94.9661 27.4824H111.957C110.93 40.8427 105.696 49.8905 99.2742 56.1575H99.2541Z" fill="#F5D549"/>
<path d="M32.7731 14.5883L32.7731 14.5882C32.5939 9.8523 36.4705 5.91315 41.2557 5.91315H86.3499C91.135 5.91315 95.0117 9.8523 94.8325 14.5882L94.8324 14.589C94.7922 15.6776 94.7522 16.716 94.6925 17.7523L94.6315 18.8099H95.6908H116.95C119.074 18.8099 120.781 20.5174 120.781 22.6462C120.781 41.0365 114.146 53.7555 105.3 62.3731C96.5486 70.8963 85.8558 75.2074 77.9119 77.3998C72.8314 78.7855 69.2448 83.0709 69.2448 87.553C69.2448 92.316 73.1139 96.1903 77.8746 96.1903H83.1289C86.1389 96.1903 88.5709 98.6233 88.5709 101.639C88.5709 104.654 86.1389 107.087 83.1289 107.087H44.4767C41.4667 107.087 39.0347 104.654 39.0347 101.639C39.0347 98.6233 41.4667 96.1903 44.4767 96.1903H49.731C54.4916 96.1903 58.3608 92.316 58.3608 87.553C58.3608 83.0659 54.7488 78.8054 49.6969 77.4007L49.6957 77.4003C41.7713 75.208 31.0777 70.8968 22.3253 62.3731L22.3246 62.3725C13.4597 53.7551 6.82452 41.0366 6.82452 22.6462C6.82452 20.5174 8.53179 18.8099 10.656 18.8099H31.9147H32.974L32.9131 17.7523C32.8534 16.7161 32.8134 15.6581 32.7731 14.5883ZM15.6889 26.4824H14.6107L14.6917 27.5576C15.7173 41.1699 21.0638 50.4434 27.6743 56.8743C32.2888 61.3695 37.6108 64.5532 42.7033 66.8051L45.4544 68.0217L43.9793 65.4001C39.4941 57.4296 35.4766 45.4405 33.6545 27.3821L33.5638 26.4824H32.6596H15.6889ZM83.6464 65.4001L82.1713 68.0217L84.9224 66.8051C89.9073 64.6008 95.1121 61.5036 99.6579 57.1575H99.6813L99.9726 56.8732C106.562 50.4428 111.908 41.1703 112.954 27.5591L113.037 26.4824H111.957H94.9661H94.0619L93.9712 27.3821C92.1491 45.4405 88.1316 57.4296 83.6464 65.4001Z" stroke="#203152" stroke-width="2"/>
</g>
<defs>
<filter id="filter0_d_59_557" x="5.82452" y="4.91315" width="115.956" height="107.174" filterUnits="userSpaceOnUse" color-interpolation-filters="sRGB">
<feFlood flood-opacity="0" result="BackgroundImageFix"/>
<feColorMatrix in="SourceAlpha" type="matrix" values="0 0 0 0 0 0 0 0 0 0 0 0 0 0 0 0 0 0 127 0" result="hardAlpha"/>
<feOffset dy="4"/>
<feComposite in2="hardAlpha" operator="out"/>
<feColorMatrix type="matrix" values="0 0 0 0 0.12549 0 0 0 0 0.192157 0 0 0 0 0.321569 0 0 0 1 0"/>
<feBlend mode="normal" in2="BackgroundImageFix" result="effect1_dropShadow_59_557"/>
<feBlend mode="normal" in="SourceGraphic" in2="effect1_dropShadow_59_557" result="shape"/>
</filter>
</defs>
</svg>
