<svg width="37" height="36" viewBox="0 0 37 36" fill="none" xmlns="http://www.w3.org/2000/svg">
<path d="M24.6111 2.87964H11.3889C9.82465 2.87964 8.54965 4.16771 8.60868 5.72758C8.62049 6.04073 8.63229 6.35389 8.65 6.66113H2.41667C1.6316 6.66113 1 7.29335 1 8.0792C1 13.5505 2.97743 17.3557 5.63368 19.9377C8.24861 22.4843 11.4361 23.7665 13.7854 24.4164C15.1667 24.8005 16.1111 25.9527 16.1111 27.1108C16.1111 28.3457 15.1076 29.3501 13.874 29.3501H12.3333C11.2885 29.3501 10.4444 30.195 10.4444 31.2409C10.4444 32.2867 11.2885 33.1316 12.3333 33.1316H23.6667C24.7115 33.1316 25.5556 32.2867 25.5556 31.2409C25.5556 30.195 24.7115 29.3501 23.6667 29.3501H22.126C20.8924 29.3501 19.8889 28.3457 19.8889 27.1108C19.8889 25.9527 20.8274 24.7946 22.2146 24.4164C24.5698 23.7665 27.7573 22.4843 30.3722 19.9377C33.0226 17.3557 35 13.5505 35 8.0792C35 7.29335 34.3684 6.66113 33.5833 6.66113H27.35C27.3677 6.35389 27.3795 6.04664 27.3913 5.72758C27.4503 4.16771 26.1753 2.87964 24.6111 2.87964ZM3.89236 9.49726H8.8684C9.40556 14.8209 10.592 18.3779 11.9319 20.759C10.4622 20.1091 8.93333 19.1933 7.61111 17.9052C5.72222 16.0676 4.1875 13.4147 3.89236 9.49726ZM28.3948 17.9052C27.0726 19.1933 25.5437 20.1091 24.074 20.759C25.4139 18.3779 26.6003 14.8209 27.1375 9.49726H32.1194C31.8184 13.4147 30.2837 16.0676 28.4007 17.9052H28.3948Z" fill="#203152"/>
<path d="M8.9115 4.83652L8.91149 4.83648C8.85916 3.45359 9.99121 2.30303 11.3889 2.30303H24.6111C26.0088 2.30303 27.1408 3.45359 27.0885 4.83648L27.0885 4.83674C27.0767 5.15593 27.065 5.4603 27.0475 5.76406L27.029 6.08453H27.35H33.5833C34.2008 6.08453 34.697 6.58079 34.697 7.19956C34.697 12.5892 32.7525 16.316 30.1608 18.841C27.5963 21.3384 24.4629 22.6019 22.1345 23.2445C20.6413 23.6518 19.5859 24.9116 19.5859 26.2311C19.5859 27.6331 20.7247 28.7735 22.126 28.7735H23.6667C24.5438 28.7735 25.2525 29.4825 25.2525 30.3612C25.2525 31.24 24.5438 31.9489 23.6667 31.9489H12.3333C11.4562 31.9489 10.7475 31.24 10.7475 30.3612C10.7475 29.4825 11.4562 28.7735 12.3333 28.7735H13.874C15.2753 28.7735 16.4141 27.6331 16.4141 26.2311C16.4141 24.9102 15.3512 23.6577 13.8666 23.2448L13.8662 23.2447C11.5435 22.6022 8.40978 21.3387 5.8451 18.841L5.8449 18.8408C3.24747 16.3159 1.30303 12.5892 1.30303 7.19956C1.30303 6.58079 1.79924 6.08453 2.41667 6.08453H8.65H8.971L8.95253 5.76406C8.93502 5.46034 8.92332 5.15022 8.9115 4.83652ZM3.89236 8.31459H3.56564L3.59019 8.64038C3.89108 12.6342 5.45987 15.3555 7.39981 17.2427C8.75386 18.5618 10.3154 19.4959 11.8094 20.1565L12.6431 20.5252L12.196 19.7308C10.8817 17.3952 9.70407 13.8812 9.1699 8.5872L9.1424 8.31459H8.8684H3.89236ZM23.8099 19.7308L23.3628 20.5252L24.1965 20.1565C25.6579 19.5103 27.1839 18.6024 28.5171 17.3286H28.5241L28.6123 17.2424C30.5461 15.3553 32.1147 12.6343 32.4216 8.64084L32.4467 8.31459H32.1194H27.1375H26.8635L26.836 8.5872C26.3018 13.8812 25.1242 17.3952 23.8099 19.7308Z" fill="#F5D549" stroke="#203152" stroke-width="0.606061"/>
</svg>
