<svg width="24" height="24" viewBox="0 0 24 24" fill="none" xmlns="http://www.w3.org/2000/svg">
<path d="M16.2641 4.39765L9.34759 11.4251C9.1959 11.5785 9.11081 11.7855 9.11081 12.0011C9.11081 12.2168 9.1959 12.4238 9.34759 12.5771L16.2626 19.6046C16.4142 19.7589 16.4992 19.9666 16.4992 20.1829C16.4992 20.3992 16.4142 20.6069 16.2626 20.7611C16.1885 20.8371 16.1 20.8975 16.0022 20.9387C15.9045 20.9799 15.7994 21.0012 15.6933 21.0012C15.5872 21.0012 15.4822 20.9799 15.3844 20.9387C15.2867 20.8975 15.1982 20.8371 15.1241 20.7611L8.20909 13.7351C7.7547 13.2724 7.50012 12.6497 7.50012 12.0011C7.50012 11.3526 7.7547 10.7299 8.20909 10.2671L15.1241 3.24115C15.1982 3.16494 15.2868 3.10437 15.3847 3.06301C15.4826 3.02165 15.5878 3.00034 15.6941 3.00034C15.8004 3.00034 15.9056 3.02165 16.0035 3.06301C16.1014 3.10437 16.19 3.16494 16.2641 3.24115C16.4157 3.39543 16.5007 3.60309 16.5007 3.8194C16.5007 4.03571 16.4157 4.24336 16.2641 4.39765Z" fill="black"/>
</svg>
