<svg width="16" height="16" viewBox="0 0 16 16" fill="none" xmlns="http://www.w3.org/2000/svg">
<g clip-path="url(#clip0_50_413)">
<path d="M8 16C5.87827 16 3.84344 15.1571 2.34315 13.6569C0.842855 12.1566 0 10.1217 0 8C0 5.87827 0.842855 3.84344 2.34315 2.34315C3.84344 0.842855 5.87827 0 8 0C10.1217 0 12.1566 0.842855 13.6569 2.34315C15.1571 3.84344 16 5.87827 16 8C16 10.1217 15.1571 12.1566 13.6569 13.6569C12.1566 15.1571 10.1217 16 8 16ZM5.6 4.8V6.4C5.6 7.03652 5.85286 7.64697 6.30294 8.09706C6.75303 8.54714 7.36348 8.8 8 8.8C8.63652 8.8 9.24697 8.54714 9.69706 8.09706C10.1471 7.64697 10.4 7.03652 10.4 6.4V4.8C10.4 4.16348 10.1471 3.55303 9.69706 3.10294C9.24697 2.65286 8.63652 2.4 8 2.4C7.36348 2.4 6.75303 2.65286 6.30294 3.10294C5.85286 3.55303 5.6 4.16348 5.6 4.8ZM2.68 11.552C3.26484 12.4265 4.05625 13.1434 4.98418 13.6391C5.91211 14.1349 6.94794 14.3942 8 14.3942C9.05206 14.3942 10.0879 14.1349 11.0158 13.6391C11.9438 13.1434 12.7352 12.4265 13.32 11.552C11.6511 10.7859 9.83637 10.3893 8 10.3893C6.16363 10.3893 4.34893 10.7859 2.68 11.552Z" fill="#203152"/>
</g>
<defs>
<clipPath id="clip0_50_413">
<rect width="16" height="16" fill="white"/>
</clipPath>
</defs>
</svg>
