<svg width="24" height="24" viewBox="0 0 24 24" fill="none" xmlns="http://www.w3.org/2000/svg">
<path d="M14.234 16.014L14.788 14.91C15.596 13.3 15.685 11.682 15.041 10.358C14.918 10.1121 14.7695 9.87987 14.598 9.665C15.311 9.35359 15.9178 8.84124 16.3444 8.19056C16.771 7.53988 16.9988 6.77904 17 6.001C17 3.795 15.206 2.001 13 2.001C10.794 2.001 8.99999 3.795 8.99999 6.001C8.99999 6.784 9.23399 7.509 9.62399 8.127C7.92799 8.457 6.81799 9.375 6.67699 9.502C6.38672 9.75704 6.17668 10.0908 6.07232 10.4628C5.96797 10.8349 5.97378 11.2292 6.08905 11.598C6.20432 11.9668 6.42411 12.2942 6.72176 12.5406C7.01942 12.7869 7.38215 12.9417 7.76599 12.986L7.21199 14.09C6.40399 15.7 6.31499 17.318 6.95799 18.642C7.52299 19.806 8.57899 20.597 9.92999 20.871C10.343 20.955 10.766 20.998 11.184 20.998C13.552 20.998 15.149 19.651 15.324 19.497C15.6144 19.242 15.8245 18.9083 15.9289 18.5362C16.0333 18.1641 16.0274 17.7697 15.912 17.4009C15.7966 17.0321 15.5766 16.7048 15.2787 16.4586C14.9809 16.2124 14.6179 16.0579 14.234 16.014ZM13 4.001C13.2627 4.00107 13.5228 4.05287 13.7655 4.15347C14.0082 4.25407 14.2287 4.40148 14.4144 4.58729C14.6001 4.7731 14.7474 4.99367 14.8479 5.2364C14.9484 5.47914 15.0001 5.73929 15 6.002C14.9999 6.26471 14.9481 6.52483 14.8475 6.76752C14.7469 7.01021 14.5995 7.2307 14.4137 7.41642C14.2279 7.60214 14.0073 7.74944 13.7646 7.84991C13.5218 7.95039 13.2617 8.00207 12.999 8.002C12.4684 8.00187 11.9596 7.79097 11.5846 7.41571C11.2095 7.04045 10.9989 6.53157 10.999 6.001C10.9991 5.47043 11.21 4.96165 11.5853 4.58658C11.9605 4.21151 12.4694 4.00087 13 4.001ZM11.184 19C10.913 19 10.625 18.975 10.33 18.913C8.68799 18.579 8.00199 16.98 9.00199 14.986L10.002 12.991C10.502 11.995 10.472 11.361 9.89399 10.956C9.71299 10.831 9.46299 10.787 9.20499 10.787C8.62799 10.787 8.00399 11.001 8.00399 11.001C8.00399 11.001 9.13699 10 10.816 10C11.087 10 11.376 10.025 11.672 10.087C13.312 10.421 14 12.02 13 14.014L12 16.007C11.5 17.005 11.528 17.639 12.106 18.042C12.287 18.168 12.539 18.211 12.798 18.211C13.375 18.211 13.998 17.999 13.998 17.999C13.998 17.999 12.865 19 11.184 19Z" fill="#203152"/>
</svg>
