<svg width="91" height="88" viewBox="0 0 91 88" fill="none" xmlns="http://www.w3.org/2000/svg">
<mask id="path-1-outside-1_2001_552" maskUnits="userSpaceOnUse" x="5.459" y="7.92425" width="82.3934" height="74.1018" fill="black">
<rect fill="white" x="5.459" y="7.92425" width="82.3934" height="74.1018"/>
<path d="M33.5856 57.159C33.4892 57.5561 33.287 57.9712 32.979 58.404C32.6761 58.8033 32.263 59.1939 31.7396 59.576C31.0417 60.0853 30.3965 60.4225 29.8039 60.5877C29.2307 60.7386 28.7206 60.6504 28.2736 60.3229C26.4857 59.0131 25.0352 57.9622 23.9223 57.17C22.7951 56.3585 21.8446 55.6261 21.0706 54.9727L20.9252 55.0789C21.7018 56.2651 22.4174 57.3473 23.072 58.3255C23.7317 59.2701 24.3773 60.1954 25.0088 61.1013C25.6596 61.993 26.2982 62.9086 26.9244 63.8481C27.57 64.7733 28.267 65.8097 29.0153 66.9571C28.8341 67.238 28.5611 67.5561 28.1965 67.9114C27.8459 68.286 27.4671 68.6219 27.06 68.9191C26.2071 69.5416 25.4392 69.894 24.7565 69.9764C24.0931 70.0445 23.4997 69.72 22.9762 69.0027L12.9955 53.5571C12.9667 53.1919 13.1079 52.6729 13.419 52.0001C13.7302 51.3273 14.3608 50.6443 15.3107 49.951C16.3381 49.2011 17.2629 48.7787 18.085 48.6838C18.8929 48.5695 19.6944 48.7719 20.4893 49.2911C21.0033 49.629 21.5766 50.0277 22.2091 50.4872C22.8609 50.9325 23.5172 51.4043 24.178 51.9025C24.8582 52.3866 25.5286 52.8778 26.1894 53.376C26.836 53.8549 27.4208 54.2897 27.9438 54.6805L28.0892 54.5744C27.3659 52.6065 26.6851 50.6966 26.0468 48.845C25.3943 46.9739 24.8869 45.3832 24.5247 44.0728C24.7023 43.7054 24.9787 43.3106 25.3538 42.8882C25.7342 42.4324 26.2055 41.9993 26.7676 41.5889C27.7175 40.8956 28.5991 40.4751 29.4123 40.3272C30.2113 40.16 30.8503 40.3028 31.3293 40.7554C31.6898 41.0865 32.206 41.6309 32.8778 42.3885C33.5548 43.1126 34.3096 43.9433 35.1423 44.8806C35.975 45.8179 36.8501 46.8134 37.7677 47.867C38.6852 48.9206 39.5648 49.9426 40.4064 50.9328C41.2532 51.8895 42.0241 52.7828 42.7189 53.6127C43.3996 54.4232 43.9195 55.0541 44.2784 55.5052C44.0904 55.9396 43.8405 56.3299 43.5287 56.6763C43.2505 57.0279 42.8304 57.4089 42.2682 57.8192C41.5315 58.3569 40.8192 58.6836 40.1312 58.7995C39.4433 58.9153 38.8111 58.6191 38.2346 57.9107C36.5761 55.8826 35.1119 54.0394 33.8422 52.3811C32.5919 50.7087 31.5202 49.3218 30.6273 48.2205L30.4819 48.3266C30.8398 49.2242 31.252 50.3792 31.7185 51.7918C32.185 53.2044 32.8073 54.9935 33.5856 57.159ZM51.1142 46.1928C51.4438 45.9523 51.7812 45.6615 52.1264 45.3203C52.4769 44.9456 52.7067 44.6294 52.8156 44.3716L51.1178 42.0453L49.1514 43.7479C48.6369 44.1828 48.276 44.6246 48.0685 45.0731C47.8611 45.5216 47.8988 45.9398 48.1818 46.3275C48.4648 46.7152 48.8436 46.9289 49.3183 46.9687C49.7983 46.975 50.3969 46.7163 51.1142 46.1928ZM42.5408 34.9347C43.5876 34.1707 44.6153 33.584 45.6239 33.1747C46.6519 32.7512 47.6291 32.5431 48.5555 32.5504C49.4871 32.5241 50.3653 32.7299 51.1901 33.1679C52.0007 33.5865 52.7385 34.2513 53.4035 35.1625L58.1576 41.6761C58.5254 42.1801 58.6842 42.703 58.634 43.2448C58.589 43.7531 58.4575 44.265 58.2396 44.7806C57.5313 46.4563 56.0334 48.129 53.7459 49.7986C52.7185 50.5485 51.7172 51.1307 50.7421 51.5452C49.7864 51.9456 48.8666 52.1713 47.9827 52.2222C47.1181 52.2589 46.3018 52.0971 45.5336 51.7367C44.7848 51.3621 44.1203 50.7774 43.5402 49.9826C42.564 48.645 42.2115 47.3275 42.4828 46.0301C42.7541 44.7327 43.6597 43.3884 45.1995 41.9971L48.7117 38.8097L48.5631 38.6062C48.1528 38.044 47.6107 37.8305 46.9369 37.9658C46.2683 38.0675 45.4688 38.4579 44.5382 39.1371C43.8016 39.6747 43.1409 40.2758 42.5562 40.9402C41.9715 41.6047 41.483 42.2584 41.0906 42.9013C40.7112 42.9108 40.307 42.8047 39.8778 42.5831C39.4345 42.3421 39.0714 42.0278 38.7884 41.6401C38.4205 41.136 38.2468 40.6537 38.2672 40.1931C38.2928 39.699 38.4798 39.1614 38.8282 38.5803C39.2348 37.9568 39.7807 37.3206 40.466 36.6719C41.1707 36.009 41.8623 35.4299 42.5408 34.9347ZM59.0267 22.9022C60.1899 22.0532 61.379 21.4231 62.594 21.0116C63.8143 20.5667 65.0095 20.3926 66.1795 20.4895C67.3496 20.5863 68.4848 20.9611 69.5852 21.6139C70.6714 22.2473 71.6886 23.2134 72.6365 24.5122C73.5421 25.7529 74.1599 26.9658 74.4902 28.151C74.8204 29.3362 74.8991 30.4822 74.7262 31.5888C74.5393 32.6761 74.1034 33.7073 73.4187 34.6825C72.7533 35.6435 71.8681 36.5272 70.7632 37.3337C69.9296 37.9421 69.0622 38.3821 68.161 38.6536L71.684 43.4806C71.5326 43.6803 71.2649 43.9648 70.8809 44.3342C70.511 44.7231 70.1031 45.0802 69.6572 45.4056C69.2307 45.7169 68.8218 45.9708 68.4304 46.1673C68.0584 46.3497 67.6924 46.4385 67.3325 46.4339C66.9725 46.4292 66.6212 46.3142 66.2785 46.0889C65.9499 45.883 65.6088 45.5377 65.255 45.0531L55.0678 31.0954C54.6858 30.572 54.4811 30.0676 54.4538 29.5825C54.4459 29.0831 54.5368 28.5562 54.7264 28.0019C55.0444 27.1755 55.5644 26.3206 56.2863 25.4371C57.0083 24.5537 57.9218 23.7087 59.0267 22.9022ZM67.1922 33.9678C69.189 32.5104 69.3172 30.5895 67.5769 28.2051C66.6713 26.9644 65.7472 26.2275 64.8046 25.9944C63.8813 25.7472 62.9544 25.9632 62.0239 26.6423C61.6556 26.9111 61.3614 27.2001 61.1414 27.5093C60.9072 27.7991 60.7259 28.0799 60.5976 28.3519L65.2667 34.7492C65.5842 34.6957 65.907 34.6087 66.235 34.4882C66.563 34.3676 66.8821 34.1942 67.1922 33.9678Z"/>
</mask>
<path d="M33.5856 57.159C33.4892 57.5561 33.287 57.9712 32.979 58.404C32.6761 58.8033 32.263 59.1939 31.7396 59.576C31.0417 60.0853 30.3965 60.4225 29.8039 60.5877C29.2307 60.7386 28.7206 60.6504 28.2736 60.3229C26.4857 59.0131 25.0352 57.9622 23.9223 57.17C22.7951 56.3585 21.8446 55.6261 21.0706 54.9727L20.9252 55.0789C21.7018 56.2651 22.4174 57.3473 23.072 58.3255C23.7317 59.2701 24.3773 60.1954 25.0088 61.1013C25.6596 61.993 26.2982 62.9086 26.9244 63.8481C27.57 64.7733 28.267 65.8097 29.0153 66.9571C28.8341 67.238 28.5611 67.5561 28.1965 67.9114C27.8459 68.286 27.4671 68.6219 27.06 68.9191C26.2071 69.5416 25.4392 69.894 24.7565 69.9764C24.0931 70.0445 23.4997 69.72 22.9762 69.0027L12.9955 53.5571C12.9667 53.1919 13.1079 52.6729 13.419 52.0001C13.7302 51.3273 14.3608 50.6443 15.3107 49.951C16.3381 49.2011 17.2629 48.7787 18.085 48.6838C18.8929 48.5695 19.6944 48.7719 20.4893 49.2911C21.0033 49.629 21.5766 50.0277 22.2091 50.4872C22.8609 50.9325 23.5172 51.4043 24.178 51.9025C24.8582 52.3866 25.5286 52.8778 26.1894 53.376C26.836 53.8549 27.4208 54.2897 27.9438 54.6805L28.0892 54.5744C27.3659 52.6065 26.6851 50.6966 26.0468 48.845C25.3943 46.9739 24.8869 45.3832 24.5247 44.0728C24.7023 43.7054 24.9787 43.3106 25.3538 42.8882C25.7342 42.4324 26.2055 41.9993 26.7676 41.5889C27.7175 40.8956 28.5991 40.4751 29.4123 40.3272C30.2113 40.16 30.8503 40.3028 31.3293 40.7554C31.6898 41.0865 32.206 41.6309 32.8778 42.3885C33.5548 43.1126 34.3096 43.9433 35.1423 44.8806C35.975 45.8179 36.8501 46.8134 37.7677 47.867C38.6852 48.9206 39.5648 49.9426 40.4064 50.9328C41.2532 51.8895 42.0241 52.7828 42.7189 53.6127C43.3996 54.4232 43.9195 55.0541 44.2784 55.5052C44.0904 55.9396 43.8405 56.3299 43.5287 56.6763C43.2505 57.0279 42.8304 57.4089 42.2682 57.8192C41.5315 58.3569 40.8192 58.6836 40.1312 58.7995C39.4433 58.9153 38.8111 58.6191 38.2346 57.9107C36.5761 55.8826 35.1119 54.0394 33.8422 52.3811C32.5919 50.7087 31.5202 49.3218 30.6273 48.2205L30.4819 48.3266C30.8398 49.2242 31.252 50.3792 31.7185 51.7918C32.185 53.2044 32.8073 54.9935 33.5856 57.159ZM51.1142 46.1928C51.4438 45.9523 51.7812 45.6615 52.1264 45.3203C52.4769 44.9456 52.7067 44.6294 52.8156 44.3716L51.1178 42.0453L49.1514 43.7479C48.6369 44.1828 48.276 44.6246 48.0685 45.0731C47.8611 45.5216 47.8988 45.9398 48.1818 46.3275C48.4648 46.7152 48.8436 46.9289 49.3183 46.9687C49.7983 46.975 50.3969 46.7163 51.1142 46.1928ZM42.5408 34.9347C43.5876 34.1707 44.6153 33.584 45.6239 33.1747C46.6519 32.7512 47.6291 32.5431 48.5555 32.5504C49.4871 32.5241 50.3653 32.7299 51.1901 33.1679C52.0007 33.5865 52.7385 34.2513 53.4035 35.1625L58.1576 41.6761C58.5254 42.1801 58.6842 42.703 58.634 43.2448C58.589 43.7531 58.4575 44.265 58.2396 44.7806C57.5313 46.4563 56.0334 48.129 53.7459 49.7986C52.7185 50.5485 51.7172 51.1307 50.7421 51.5452C49.7864 51.9456 48.8666 52.1713 47.9827 52.2222C47.1181 52.2589 46.3018 52.0971 45.5336 51.7367C44.7848 51.3621 44.1203 50.7774 43.5402 49.9826C42.564 48.645 42.2115 47.3275 42.4828 46.0301C42.7541 44.7327 43.6597 43.3884 45.1995 41.9971L48.7117 38.8097L48.5631 38.6062C48.1528 38.044 47.6107 37.8305 46.9369 37.9658C46.2683 38.0675 45.4688 38.4579 44.5382 39.1371C43.8016 39.6747 43.1409 40.2758 42.5562 40.9402C41.9715 41.6047 41.483 42.2584 41.0906 42.9013C40.7112 42.9108 40.307 42.8047 39.8778 42.5831C39.4345 42.3421 39.0714 42.0278 38.7884 41.6401C38.4205 41.136 38.2468 40.6537 38.2672 40.1931C38.2928 39.699 38.4798 39.1614 38.8282 38.5803C39.2348 37.9568 39.7807 37.3206 40.466 36.6719C41.1707 36.009 41.8623 35.4299 42.5408 34.9347ZM59.0267 22.9022C60.1899 22.0532 61.379 21.4231 62.594 21.0116C63.8143 20.5667 65.0095 20.3926 66.1795 20.4895C67.3496 20.5863 68.4848 20.9611 69.5852 21.6139C70.6714 22.2473 71.6886 23.2134 72.6365 24.5122C73.5421 25.7529 74.1599 26.9658 74.4902 28.151C74.8204 29.3362 74.8991 30.4822 74.7262 31.5888C74.5393 32.6761 74.1034 33.7073 73.4187 34.6825C72.7533 35.6435 71.8681 36.5272 70.7632 37.3337C69.9296 37.9421 69.0622 38.3821 68.161 38.6536L71.684 43.4806C71.5326 43.6803 71.2649 43.9648 70.8809 44.3342C70.511 44.7231 70.1031 45.0802 69.6572 45.4056C69.2307 45.7169 68.8218 45.9708 68.4304 46.1673C68.0584 46.3497 67.6924 46.4385 67.3325 46.4339C66.9725 46.4292 66.6212 46.3142 66.2785 46.0889C65.9499 45.883 65.6088 45.5377 65.255 45.0531L55.0678 31.0954C54.6858 30.572 54.4811 30.0676 54.4538 29.5825C54.4459 29.0831 54.5368 28.5562 54.7264 28.0019C55.0444 27.1755 55.5644 26.3206 56.2863 25.4371C57.0083 24.5537 57.9218 23.7087 59.0267 22.9022ZM67.1922 33.9678C69.189 32.5104 69.3172 30.5895 67.5769 28.2051C66.6713 26.9644 65.7472 26.2275 64.8046 25.9944C63.8813 25.7472 62.9544 25.9632 62.0239 26.6423C61.6556 26.9111 61.3614 27.2001 61.1414 27.5093C60.9072 27.7991 60.7259 28.0799 60.5976 28.3519L65.2667 34.7492C65.5842 34.6957 65.907 34.6087 66.235 34.4882C66.563 34.3676 66.8821 34.1942 67.1922 33.9678Z" fill="#F5D549"/>
<path d="M33.5856 57.159L37.4728 58.1022L37.7559 56.9357L37.3499 55.8061L33.5856 57.159ZM32.979 58.404L36.1661 60.8211L36.2027 60.7728L36.2378 60.7234L32.979 58.404ZM29.8039 60.5877L30.8225 64.4558L30.85 64.4485L30.8774 64.4409L29.8039 60.5877ZM28.2736 60.3229L25.9097 63.5497L25.9097 63.5497L28.2736 60.3229ZM23.9223 57.17L21.585 60.4162L21.5939 60.4226L21.6028 60.4289L23.9223 57.17ZM21.0706 54.9727L23.6508 51.9161L21.2501 49.8897L18.7124 51.7418L21.0706 54.9727ZM20.9252 55.0789L18.5671 51.8479L15.4962 54.0892L17.5787 57.2699L20.9252 55.0789ZM23.072 58.3255L19.7475 60.5499L19.7697 60.5831L19.7926 60.6158L23.072 58.3255ZM25.0088 61.1013L21.7273 63.3887L21.7522 63.4243L21.7778 63.4595L25.0088 61.1013ZM26.9244 63.8481L23.5961 66.0667L23.6197 66.1021L23.644 66.137L26.9244 63.8481ZM29.0153 66.9571L32.3762 69.1262L33.7834 66.9458L32.3658 64.772L29.0153 66.9571ZM28.1965 67.9114L25.4051 65.0464L25.3387 65.111L25.2754 65.1787L28.1965 67.9114ZM24.7565 69.9764L25.1654 73.9554L25.2004 73.9518L25.2353 73.9476L24.7565 69.9764ZM22.9762 69.0027L19.6166 71.1737L19.6783 71.2691L19.7453 71.3609L22.9762 69.0027ZM12.9955 53.5571L9.00796 53.8722L9.08754 54.8794L9.63592 55.7281L12.9955 53.5571ZM18.085 48.6838L18.5437 52.6574L18.5946 52.6515L18.6453 52.6443L18.085 48.6838ZM20.4893 49.2911L22.6865 45.9486L22.6766 45.9421L20.4893 49.2911ZM22.2091 50.4872L19.8581 53.7234L19.9049 53.7574L19.9527 53.79L22.2091 50.4872ZM24.178 51.9025L21.7698 55.0963L21.8137 55.1295L21.8586 55.1614L24.178 51.9025ZM26.1894 53.376L23.7812 56.5698L23.795 56.5802L23.8089 56.5905L26.1894 53.376ZM27.9438 54.6805L25.5492 57.8846L27.9156 59.6532L30.3019 57.9115L27.9438 54.6805ZM28.0892 54.5744L30.4473 57.8054L32.8845 56.0266L31.8437 53.1946L28.0892 54.5744ZM26.0468 48.845L29.8283 47.5413L29.826 47.5345L29.8237 47.5278L26.0468 48.845ZM24.5247 44.0728L20.9235 42.3316L20.2682 43.6871L20.6693 45.1383L24.5247 44.0728ZM25.3538 42.8882L28.3445 45.5445L28.3856 45.4983L28.4252 45.4508L25.3538 42.8882ZM29.4123 40.3272L30.1277 44.2627L30.1798 44.2533L30.2316 44.2424L29.4123 40.3272ZM31.3293 40.7554L28.5817 43.6625L28.6025 43.6821L28.6235 43.7014L31.3293 40.7554ZM32.8778 42.3885L29.8849 45.0424L29.92 45.0819L29.956 45.1204L32.8778 42.3885ZM40.4064 50.9328L37.3585 53.5232L37.3845 53.5539L37.4112 53.584L40.4064 50.9328ZM42.7189 53.6127L39.652 56.1806L39.6559 56.1852L42.7189 53.6127ZM44.2784 55.5052L47.9492 57.0944L48.9026 54.8923L47.4084 53.0145L44.2784 55.5052ZM43.5287 56.6763L40.5556 54.0005L40.4706 54.0948L40.3919 54.1944L43.5287 56.6763ZM38.2346 57.9107L41.3372 55.386L41.3311 55.3785L38.2346 57.9107ZM33.8422 52.3811L30.6386 54.7762L30.6523 54.7946L30.6663 54.8129L33.8422 52.3811ZM30.6273 48.2205L33.7343 45.7013L31.34 42.7483L28.2691 44.9896L30.6273 48.2205ZM30.4819 48.3266L28.1237 45.0957L25.6167 46.9255L26.7665 49.8084L30.4819 48.3266ZM31.7185 51.7918L35.5168 50.5376L35.5168 50.5376L31.7185 51.7918ZM29.6984 56.2157C29.7261 56.1018 29.757 56.0342 29.7658 56.016C29.7744 55.9985 29.765 56.0214 29.7201 56.0845L36.2378 60.7234C36.7568 59.9943 37.2264 59.1178 37.4728 58.1022L29.6984 56.2157ZM29.7919 55.9869C29.7815 56.0006 29.6773 56.1291 29.3815 56.345L34.0978 62.8069C34.8488 62.2588 35.5708 61.6059 36.1661 60.8211L29.7919 55.9869ZM29.3815 56.345C29.1643 56.5035 28.9972 56.6044 28.8795 56.6659C28.7613 56.7277 28.713 56.7392 28.7303 56.7344L30.8774 64.4409C32.0779 64.1064 33.1572 63.4934 34.0978 62.8069L29.3815 56.345ZM28.7852 56.7195C28.9733 56.67 29.2863 56.6263 29.6733 56.6932C30.0688 56.7617 30.3988 56.9213 30.6375 57.0961L25.9097 63.5497C27.4052 64.6452 29.1762 64.8893 30.8225 64.4558L28.7852 56.7195ZM30.6375 57.0961C28.8426 55.7813 27.3758 54.7183 26.2417 53.9112L21.6028 60.4289C22.6947 61.206 24.1287 62.245 25.9097 63.5497L30.6375 57.0961ZM26.2595 53.9239C25.1875 53.1521 24.3235 52.484 23.6508 51.9161L18.4904 58.0293C19.3656 58.7681 20.4027 59.5649 21.585 60.4162L26.2595 53.9239ZM18.7124 51.7418L18.5671 51.8479L23.2834 58.3098L23.4288 58.2037L18.7124 51.7418ZM17.5787 57.2699C18.3612 58.4651 19.0842 59.5586 19.7475 60.5499L26.3964 56.101C25.7506 55.1359 25.0425 54.065 24.2718 52.8878L17.5787 57.2699ZM19.7926 60.6158C20.4517 61.5595 21.0966 62.4838 21.7273 63.3887L28.2902 58.8139C27.6581 57.907 27.0118 56.9807 26.3513 56.0351L19.7926 60.6158ZM21.7778 63.4595C22.3945 64.3044 23.0006 65.1734 23.5961 66.0667L30.2527 61.6294C29.5957 60.6439 28.9248 59.6817 28.2398 58.7431L21.7778 63.4595ZM23.644 66.137C24.2614 67.0217 24.9348 68.0227 25.6649 69.1422L32.3658 64.772C31.5993 63.5967 30.8787 62.525 30.2048 61.5592L23.644 66.137ZM25.6545 64.7881C25.6833 64.7435 25.6857 64.7472 25.6392 64.8014C25.5945 64.8535 25.5195 64.9348 25.4051 65.0464L30.9878 70.7763C31.4684 70.3081 31.9707 69.7545 32.3762 69.1262L25.6545 64.7881ZM25.2754 65.1787C25.0934 65.3733 24.9025 65.5417 24.7019 65.6881L29.4182 72.15C30.0318 71.7022 30.5985 71.1988 31.1175 70.644L25.2754 65.1787ZM24.7019 65.6881C24.4402 65.8791 24.2657 65.9737 24.1758 66.015C24.0859 66.0562 24.1259 66.0234 24.2776 66.0051L25.2353 73.9476C26.8669 73.7509 28.2833 72.9783 29.4182 72.15L24.7019 65.6881ZM24.3476 65.9973C24.8338 65.9474 25.3302 66.0542 25.7332 66.2747C26.0883 66.4688 26.2257 66.67 26.2072 66.6446L19.7453 71.3609C20.7913 72.794 22.6241 74.2166 25.1654 73.9554L24.3476 65.9973ZM26.3358 66.8318L16.3552 51.3862L9.63592 55.7281L19.6166 71.1737L26.3358 66.8318ZM16.9831 53.2421C17.0015 53.4749 16.9872 53.6534 16.9739 53.7584C16.9603 53.8652 16.9434 53.9297 16.9396 53.9438C16.9342 53.9636 16.9554 53.8827 17.0495 53.6793L9.78854 50.321C9.42796 51.1006 8.8932 52.4195 9.00796 53.8722L16.9831 53.2421ZM17.0495 53.6793C16.9921 53.8035 16.9636 53.8058 17.0645 53.6964C17.1642 53.5884 17.3515 53.4135 17.6688 53.1819L12.9525 46.72C11.7441 47.602 10.5054 48.7711 9.78854 50.321L17.0495 53.6793ZM17.6688 53.1819C18.0165 52.9282 18.2716 52.7856 18.4367 52.7102C18.6018 52.6348 18.6313 52.6473 18.5437 52.6574L17.6262 44.7102C15.8444 44.9159 14.2638 45.763 12.9525 46.72L17.6688 53.1819ZM18.6453 52.6443C18.5925 52.6518 18.5332 52.6548 18.471 52.6514C18.4089 52.648 18.3549 52.6388 18.3124 52.6281C18.2255 52.6061 18.2209 52.5871 18.3019 52.6401L22.6766 45.9421C21.2108 44.9847 19.4466 44.4513 17.5247 44.7232L18.6453 52.6443ZM18.2921 52.6336C18.7424 52.9296 19.2633 53.2913 19.8581 53.7234L24.56 47.251C23.8899 46.7641 23.2643 46.3284 22.6865 45.9486L18.2921 52.6336ZM19.9527 53.79C20.5507 54.1986 21.1564 54.6338 21.7698 55.0963L26.5862 48.7087C25.8781 48.1747 25.1711 47.6664 24.4654 47.1843L19.9527 53.79ZM21.8586 55.1614C22.5091 55.6244 23.15 56.0939 23.7812 56.5698L28.5976 50.1822C27.9073 49.6617 27.2072 49.1488 26.4975 48.6437L21.8586 55.1614ZM23.8089 56.5905C24.4519 57.0667 25.0319 57.498 25.5492 57.8846L30.3384 51.4765C29.8098 51.0815 29.2202 50.6431 28.5699 50.1615L23.8089 56.5905ZM30.3019 57.9115L30.4473 57.8054L25.731 51.3435L25.5856 51.4496L30.3019 57.9115ZM31.8437 53.1946C31.1291 51.2502 30.4573 49.3658 29.8283 47.5413L22.2652 50.1487C22.9129 52.0275 23.6028 53.9627 24.3347 55.9542L31.8437 53.1946ZM29.8237 47.5278C29.1883 45.7059 28.711 44.2043 28.3802 43.0072L20.6693 45.1383C21.0628 46.5621 21.6002 48.2419 22.2698 50.1621L29.8237 47.5278ZM28.1259 45.8139C28.1067 45.8536 28.1054 45.8475 28.1422 45.7949C28.1785 45.743 28.2424 45.6595 28.3445 45.5445L22.3631 40.232C21.8298 40.8324 21.3098 41.5329 20.9235 42.3316L28.1259 45.8139ZM28.4252 45.4508C28.5638 45.2847 28.7837 45.0696 29.1258 44.8199L24.4095 38.358C23.6272 38.929 22.9046 39.58 22.2824 40.3257L28.4252 45.4508ZM29.1258 44.8199C29.7804 44.3422 30.1046 44.2669 30.1277 44.2627L28.6968 36.3917C27.0935 36.6832 25.6547 37.4491 24.4095 38.358L29.1258 44.8199ZM30.2316 44.2424C30.2069 44.2476 29.9754 44.2923 29.6189 44.2127C29.2299 44.1258 28.8626 43.9279 28.5817 43.6625L34.0768 37.8484C32.4152 36.2779 30.3289 36.0488 28.5929 36.4121L30.2316 44.2424ZM28.6235 43.7014C28.8254 43.8869 29.2295 44.3032 29.8849 45.0424L35.8706 39.7346C35.1824 38.9586 34.5541 38.2862 34.035 37.8094L28.6235 43.7014ZM29.956 45.1204C30.6047 45.8142 31.3362 46.619 32.1519 47.5372L38.1327 42.224C37.2831 41.2676 36.5048 40.4109 35.7995 39.6566L29.956 45.1204ZM32.1519 47.5372C32.9749 48.4636 33.8413 49.4491 34.7512 50.4939L40.7842 45.2401C39.8589 44.1776 38.9751 43.1722 38.1327 42.224L32.1519 47.5372ZM34.7512 50.4939C35.659 51.5363 36.528 52.5461 37.3585 53.5232L43.4543 48.3424C42.6016 47.339 41.7115 46.3049 40.7842 45.2401L34.7512 50.4939ZM37.4112 53.584C38.2379 54.518 38.9844 55.3832 39.652 56.1806L45.7859 51.0449C45.0637 50.1824 44.2685 49.261 43.4016 48.2816L37.4112 53.584ZM39.6559 56.1852C40.3293 56.987 40.8225 57.5861 41.1485 57.9958L47.4084 53.0145C47.0165 52.522 46.47 51.8595 45.782 51.0402L39.6559 56.1852ZM40.6077 53.9159C40.589 53.9591 40.5728 53.9812 40.5556 54.0005L46.5019 59.3522C47.1081 58.6786 47.5917 57.92 47.9492 57.0944L40.6077 53.9159ZM40.3919 54.1944C40.4196 54.1594 40.4059 54.1829 40.3182 54.2624C40.2332 54.3395 40.1015 54.4485 39.91 54.5882L44.6263 61.0502C45.3387 60.5302 46.0751 59.9046 46.6656 59.1582L40.3919 54.1944ZM39.91 54.5882C39.5266 54.8681 39.3841 54.869 39.467 54.855L40.7955 62.7439C42.2543 62.4983 43.5364 61.8456 44.6263 61.0502L39.91 54.5882ZM39.467 54.855C39.9253 54.7778 40.419 54.8456 40.8384 55.0421C41.2083 55.2155 41.3579 55.4114 41.3372 55.386L35.1321 60.4354C36.2943 61.8636 38.2467 63.1732 40.7955 62.7439L39.467 54.855ZM41.3311 55.3785C39.6931 53.3756 38.2564 51.5665 37.0181 49.9493L30.6663 54.8129C31.9675 56.5123 33.459 58.3896 35.1382 60.4429L41.3311 55.3785ZM37.0459 49.986C35.7773 48.2892 34.6717 46.8574 33.7343 45.7013L27.5202 50.7397C28.3688 51.7862 29.4065 53.1282 30.6386 54.7762L37.0459 49.986ZM28.2691 44.9896L28.1237 45.0957L32.84 51.5576L32.9854 51.4515L28.2691 44.9896ZM26.7665 49.8084C27.0831 50.6025 27.4672 51.6741 27.9202 53.0461L35.5168 50.5376C35.0369 49.0844 34.5965 47.8459 34.1973 46.8449L26.7665 49.8084ZM27.9202 53.0461C28.4018 54.5043 29.0369 56.3292 29.8214 58.5119L37.3499 55.8061C36.5778 53.6577 35.9681 51.9045 35.5168 50.5376L27.9202 53.0461ZM52.1264 45.3203L54.9378 48.1657L54.9937 48.1104L55.0475 48.053L52.1264 45.3203ZM52.8156 44.3716L56.5001 45.9289L57.3818 43.8428L56.0466 42.0134L52.8156 44.3716ZM51.1178 42.0453L54.3487 39.6872L51.7859 36.1758L48.4994 39.0214L51.1178 42.0453ZM49.1514 43.7479L51.7338 46.8026L51.7519 46.7873L51.7698 46.7718L49.1514 43.7479ZM48.0685 45.0731L44.438 43.394L44.438 43.394L48.0685 45.0731ZM49.3183 46.9687L48.9843 50.9547L49.1251 50.9665L49.2663 50.9684L49.3183 46.9687ZM45.6239 33.1747L47.128 36.8811L47.1377 36.8772L47.1474 36.8732L45.6239 33.1747ZM48.5555 32.5504L48.5242 36.5502L48.5962 36.5508L48.6683 36.5488L48.5555 32.5504ZM51.1901 33.1679L49.3141 36.7007L49.3344 36.7115L49.3548 36.722L51.1901 33.1679ZM58.634 43.2448L54.6511 42.8754L54.6503 42.8836L54.6496 42.8919L58.634 43.2448ZM58.2396 44.7806L54.5552 43.2234L54.5552 43.2234L58.2396 44.7806ZM50.7421 51.5452L52.2878 55.2345L52.2975 55.2305L52.3071 55.2264L50.7421 51.5452ZM47.9827 52.2222L48.1526 56.2186L48.1826 56.2173L48.2126 56.2156L47.9827 52.2222ZM45.5336 51.7367L43.744 55.314L43.789 55.3365L43.8345 55.3579L45.5336 51.7367ZM42.4828 46.0301L38.5675 45.2113L38.5675 45.2113L42.4828 46.0301ZM45.1995 41.9971L47.8811 44.9651L47.8876 44.9592L45.1995 41.9971ZM48.7117 38.8097L51.3998 41.7718L54.0622 39.3556L51.9426 36.4516L48.7117 38.8097ZM46.9369 37.9658L47.5385 41.9203L47.6316 41.9061L47.724 41.8876L46.9369 37.9658ZM42.5562 40.9402L39.5533 38.2978L39.5533 38.2978L42.5562 40.9402ZM41.0906 42.9013L41.1903 46.9001L43.3694 46.8457L44.5049 44.9851L41.0906 42.9013ZM39.8778 42.5831L37.9674 46.0974L38.0047 46.1177L38.0426 46.1372L39.8778 42.5831ZM38.2672 40.1931L34.2725 39.9859L34.2718 40.0011L34.2711 40.0162L38.2672 40.1931ZM38.8282 38.5803L35.4775 36.3957L35.4363 36.4589L35.3975 36.5235L38.8282 38.5803ZM40.466 36.6719L37.7253 33.7583L37.7161 33.767L40.466 36.6719ZM53.4724 49.4238C53.989 49.0467 54.4769 48.6211 54.9378 48.1657L49.3151 42.4749C49.0855 42.7018 48.8985 42.8579 48.756 42.9619L53.4724 49.4238ZM55.0475 48.053C55.4978 47.5716 56.1138 46.8428 56.5001 45.9289L49.1312 42.8143C49.1847 42.6879 49.2348 42.5966 49.2662 42.5433C49.2983 42.4889 49.3206 42.4578 49.3254 42.4512C49.3322 42.4419 49.3005 42.486 49.2054 42.5877L55.0475 48.053ZM56.0466 42.0134L54.3487 39.6872L47.8868 44.4035L49.5847 46.7298L56.0466 42.0134ZM48.4994 39.0214L46.5331 40.7239L51.7698 46.7718L53.7361 45.0693L48.4994 39.0214ZM46.5691 40.6931C45.7619 41.3755 44.9624 42.2603 44.438 43.394L51.699 46.7522C51.6418 46.8759 51.5926 46.936 51.5922 46.9365C51.5916 46.9372 51.6012 46.9254 51.6247 46.9018C51.6482 46.8783 51.6837 46.845 51.7338 46.8026L46.5691 40.6931ZM44.438 43.394C44.0922 44.1415 43.8651 45.0601 43.9574 46.0829C44.0505 47.1126 44.4444 47.9917 44.9508 48.6856L51.4127 43.9693C51.6362 44.2755 51.8698 44.7517 51.925 45.3633C51.9796 45.968 51.8373 46.4532 51.699 46.7522L44.438 43.394ZM44.9508 48.6856C45.9117 50.0022 47.3435 50.8173 48.9843 50.9547L49.6524 42.9827C49.9335 43.0062 50.2857 43.0928 50.6437 43.2948C51.001 43.4964 51.2527 43.7501 51.4127 43.9693L44.9508 48.6856ZM49.2663 50.9684C51.085 50.992 52.572 50.0809 53.4724 49.4238L48.756 42.9619C48.5575 43.1067 48.4894 43.1297 48.5408 43.1075C48.5837 43.089 48.8837 42.9627 49.3704 42.9691L49.2663 50.9684ZM44.8989 38.1657C45.7301 37.559 46.4735 37.1467 47.128 36.8811L44.1198 29.4683C42.7571 30.0212 41.4451 30.7823 40.1826 31.7038L44.8989 38.1657ZM47.1474 36.8732C47.779 36.613 48.2264 36.5479 48.5242 36.5502L48.5868 28.5505C47.0319 28.5383 45.5248 28.8894 44.1004 29.4762L47.1474 36.8732ZM48.6683 36.5488C48.9064 36.5421 49.0995 36.5868 49.3141 36.7007L53.0661 29.6351C51.6311 28.8731 50.0678 28.5061 48.4427 28.552L48.6683 36.5488ZM49.3548 36.722C49.4986 36.7963 49.7888 36.9948 50.1726 37.5206L56.6345 32.8043C55.6882 31.5079 54.5028 30.3767 53.0253 29.6138L49.3548 36.722ZM50.1726 37.5206L54.9266 44.0342L61.3885 39.3179L56.6345 32.8043L50.1726 37.5206ZM54.9266 44.0342C54.883 43.9746 54.7932 43.8326 54.7252 43.6087C54.6547 43.3766 54.6281 43.1227 54.6511 42.8754L62.6169 43.6143C62.7703 41.9603 62.2411 40.4861 61.3885 39.3179L54.9266 44.0342ZM54.6496 42.8919C54.6447 42.9474 54.6267 43.0542 54.5552 43.2234L61.924 46.3379C62.2883 45.4759 62.5333 44.5588 62.6184 43.5977L54.6496 42.8919ZM54.5552 43.2234C54.2447 43.9578 53.388 45.1077 51.3877 46.5676L56.1041 53.0295C58.6788 51.1503 60.8179 48.9549 61.924 46.3379L54.5552 43.2234ZM51.3877 46.5676C50.5592 47.1723 49.8222 47.5898 49.1771 47.8641L52.3071 55.2264C53.6122 54.6715 54.8777 53.9246 56.1041 53.0295L51.3877 46.5676ZM49.1964 47.8559C48.5892 48.1103 48.1143 48.208 47.7527 48.2288L48.2126 56.2156C49.6189 56.1346 50.9836 55.7809 52.2878 55.2345L49.1964 47.8559ZM47.8128 48.2258C47.5791 48.2357 47.4053 48.1965 47.2326 48.1155L43.8345 55.3579C45.1982 55.9977 46.6572 56.2821 48.1526 56.2186L47.8128 48.2258ZM47.3231 48.1593C47.2374 48.1164 47.0408 47.9939 46.7712 47.6244L40.3093 52.3407C41.1998 53.5609 42.3322 54.6078 43.744 55.314L47.3231 48.1593ZM46.7712 47.6244C46.5134 47.2713 46.4324 47.0494 46.4078 46.9574C46.3885 46.8856 46.3944 46.8664 46.3981 46.8489L38.5675 45.2113C38.0089 47.8825 38.8444 50.3337 40.3093 52.3407L46.7712 47.6244ZM46.3981 46.8489C46.4228 46.7305 46.6386 46.0877 47.8811 44.9651L42.5178 39.0291C40.6807 40.6891 39.0853 42.735 38.5675 45.2113L46.3981 46.8489ZM47.8876 44.9592L51.3998 41.7718L46.0235 35.8477L42.5113 39.035L47.8876 44.9592ZM51.9426 36.4516L51.7941 36.248L45.3321 40.9643L45.4807 41.1679L51.9426 36.4516ZM51.7941 36.248C51.2297 35.4748 50.4185 34.7374 49.3145 34.3026C48.2069 33.8665 47.1033 33.8526 46.1497 34.044L47.724 41.8876C47.4443 41.9437 46.9486 41.9689 46.3831 41.7462C45.8212 41.5249 45.4862 41.1754 45.3321 40.9643L51.7941 36.248ZM46.3353 34.0113C44.7318 34.2552 43.3114 35.0804 42.1801 35.9061L46.8964 42.368C47.224 42.129 47.4536 41.9963 47.591 41.9292C47.7345 41.8591 47.7083 41.8944 47.5385 41.9203L46.3353 34.0113ZM42.1801 35.9061C41.2149 36.6106 40.3366 37.4076 39.5533 38.2978L45.5591 43.5827C45.9452 43.1439 46.3883 42.7389 46.8964 42.368L42.1801 35.9061ZM39.5533 38.2978C38.8413 39.1069 38.2081 39.946 37.6762 40.8175L44.5049 44.9851C44.7579 44.5707 45.1017 44.1025 45.5591 43.5827L39.5533 38.2978ZM40.9908 38.9026C41.4426 38.8913 41.7042 39.0244 41.7131 39.029L38.0426 46.1372C38.9097 46.585 39.9798 46.9303 41.1903 46.9001L40.9908 38.9026ZM41.7883 39.0688C41.8067 39.0788 41.8443 39.1019 41.8909 39.1423C41.9381 39.1832 41.9823 39.2311 42.0193 39.2819L35.5574 43.9982C36.2074 44.8888 37.031 45.5884 37.9674 46.0974L41.7883 39.0688ZM42.0193 39.2819C41.9985 39.2533 42.2952 39.6485 42.2633 40.3701L34.2711 40.0162C34.1983 41.659 34.8426 43.0188 35.5574 43.9982L42.0193 39.2819ZM42.2618 40.4004C42.2524 40.5824 42.217 40.6979 42.2046 40.7335C42.193 40.7669 42.1998 40.7356 42.2589 40.6371L35.3975 36.5235C34.8309 37.4686 34.3423 38.6421 34.2725 39.9859L42.2618 40.4004ZM42.179 40.7649C42.3757 40.4632 42.7008 40.0643 43.2159 39.5767L37.7161 33.767C36.8605 34.5769 36.0938 35.4503 35.4775 36.3957L42.179 40.7649ZM43.2067 39.5854C43.8082 39.0195 44.3727 38.5498 44.8989 38.1657L40.1826 31.7038C39.3518 32.3101 38.5331 32.9985 37.7253 33.7583L43.2067 39.5854ZM62.594 21.0116L63.8769 24.8003L63.9208 24.7855L63.9643 24.7696L62.594 21.0116ZM69.5852 21.6139L67.5444 25.0541L67.5573 25.0618L67.5703 25.0693L69.5852 21.6139ZM74.4902 28.151L70.6369 29.2246L70.6369 29.2246L74.4902 28.151ZM74.7262 31.5888L78.6684 32.2667L78.6736 32.2364L78.6783 32.206L74.7262 31.5888ZM73.4187 34.6825L70.1451 32.3838L70.1375 32.3946L70.13 32.4055L73.4187 34.6825ZM68.161 38.6536L67.0071 34.8236L61.602 36.4519L64.93 41.0117L68.161 38.6536ZM71.684 43.4806L74.8712 45.8977L76.6696 43.5264L74.915 41.1225L71.684 43.4806ZM70.8809 44.3342L68.1078 41.4515L68.0439 41.513L67.9828 41.5772L70.8809 44.3342ZM68.4304 46.1673L70.1912 49.7589L70.2083 49.7505L70.2253 49.742L68.4304 46.1673ZM67.3325 46.4339L67.3845 42.4342L67.3845 42.4342L67.3325 46.4339ZM66.2785 46.0889L68.4757 42.7464L68.4394 42.7226L68.4025 42.6995L66.2785 46.0889ZM54.4538 29.5825L50.4543 29.6458L50.4556 29.7265L50.4601 29.8071L54.4538 29.5825ZM54.7264 28.0019L50.9933 26.5653L50.9662 26.6358L50.9417 26.7073L54.7264 28.0019ZM56.2863 25.4371L59.3837 27.9682L59.3837 27.9682L56.2863 25.4371ZM64.8046 25.9944L63.7699 29.8583L63.8071 29.8682L63.8444 29.8775L64.8046 25.9944ZM61.1414 27.5093L64.2524 30.0236L64.3293 29.9284L64.4002 29.8287L61.1414 27.5093ZM60.5976 28.3519L56.9802 26.6447L55.9667 28.792L57.3666 30.71L60.5976 28.3519ZM65.2667 34.7492L62.0358 37.1073L63.4932 39.1042L65.931 38.6936L65.2667 34.7492ZM61.3849 26.1331C62.2597 25.4947 63.0904 25.0667 63.8769 24.8003L61.3112 17.2229C59.6676 17.7795 58.1201 18.6118 56.6686 19.6712L61.3849 26.1331ZM63.9643 24.7696C64.6994 24.5016 65.315 24.4316 65.8496 24.4758L66.5095 16.5031C64.704 16.3537 62.9293 16.6318 61.2238 17.2537L63.9643 24.7696ZM65.8496 24.4758C66.3625 24.5183 66.9179 24.6825 67.5444 25.0541L71.626 18.1736C70.0517 17.2397 68.3366 16.6543 66.5095 16.5031L65.8496 24.4758ZM67.5703 25.0693C68.0668 25.3588 68.6957 25.8978 69.4056 26.8704L75.8675 22.1541C74.6814 20.529 73.2761 19.1357 71.6001 18.1584L67.5703 25.0693ZM69.4056 26.8704C70.0959 27.8162 70.463 28.6003 70.6369 29.2246L78.3434 27.0775C77.8569 25.3314 76.9883 23.6896 75.8675 22.1541L69.4056 26.8704ZM70.6369 29.2246C70.8291 29.9144 70.8505 30.4827 70.7741 30.9716L78.6783 32.206C78.9476 30.4816 78.8116 28.7581 78.3434 27.0775L70.6369 29.2246ZM70.7841 30.9109C70.7053 31.3694 70.5176 31.8534 70.1451 32.3838L76.6922 36.9811C77.6893 35.5612 78.3733 33.9827 78.6684 32.2667L70.7841 30.9109ZM70.13 32.4055C69.7585 32.9421 69.2088 33.5161 68.405 34.1028L73.1213 40.5647C74.5274 39.5384 75.7482 38.3449 76.7074 36.9594L70.13 32.4055ZM68.405 34.1028C67.9011 34.4706 67.4363 34.6943 67.0071 34.8236L69.3148 42.4836C70.6881 42.0698 71.9581 41.4137 73.1213 40.5647L68.405 34.1028ZM64.93 41.0117L68.4531 45.8388L74.915 41.1225L71.3919 36.2954L64.93 41.0117ZM68.4969 41.0635C68.5401 41.0066 68.5405 41.0135 68.4565 41.1027C68.3811 41.1829 68.2678 41.2976 68.1078 41.4515L73.654 47.217C74.0599 46.8265 74.5195 46.3614 74.8712 45.8977L68.4969 41.0635ZM67.9828 41.5772C67.7829 41.7873 67.5566 41.9867 67.2991 42.1747L72.0154 48.6366C72.6496 48.1737 73.239 47.6588 73.779 47.0912L67.9828 41.5772ZM67.2991 42.1747C67.0156 42.3815 66.7948 42.5126 66.6355 42.5926L70.2253 49.742C70.8488 49.4289 71.4458 49.0523 72.0154 48.6366L67.2991 42.1747ZM66.6696 42.5757C66.7762 42.5235 67.0279 42.4296 67.3845 42.4342L67.2804 50.4335C68.3569 50.4475 69.3407 50.1759 70.1912 49.7589L66.6696 42.5757ZM67.3845 42.4342C67.8898 42.4408 68.2718 42.6124 68.4757 42.7464L64.0812 49.4314C64.9705 50.016 66.0552 50.4176 67.2804 50.4335L67.3845 42.4342ZM68.4025 42.6995C68.4819 42.7492 68.5379 42.7922 68.5716 42.8199C68.5887 42.834 68.6013 42.8451 68.6093 42.8525C68.6173 42.8598 68.6214 42.864 68.6216 42.8642C68.6216 42.8642 68.6092 42.8516 68.5849 42.8226C68.5608 42.7938 68.5276 42.752 68.486 42.6949L62.0241 47.4113C62.5312 48.1061 63.2248 48.8958 64.1544 49.4784L68.4025 42.6995ZM68.486 42.6949L58.2988 28.7372L51.8368 33.4535L62.0241 47.4113L68.486 42.6949ZM58.2988 28.7372C58.2232 28.6337 58.4193 28.8558 58.4475 29.3578L50.4601 29.8071C50.543 31.2795 51.1484 32.5102 51.8368 33.4535L58.2988 28.7372ZM58.4533 29.5192C58.4539 29.5537 58.4456 29.488 58.5111 29.2965L50.9417 26.7073C50.628 27.6244 50.438 28.6125 50.4543 29.6458L58.4533 29.5192ZM58.4596 29.4384C58.5883 29.1038 58.857 28.6127 59.3837 27.9682L53.189 22.9061C52.2717 24.0285 51.5005 25.2473 50.9933 26.5653L58.4596 29.4384ZM59.3837 27.9682C59.8523 27.3947 60.5024 26.7772 61.3849 26.1331L56.6686 19.6712C55.3411 20.6401 54.1642 21.7126 53.189 22.9061L59.3837 27.9682ZM69.5504 37.1987C71.2122 35.9858 72.6128 34.1614 72.7771 31.7005C72.9295 29.4165 71.9495 27.4112 70.8078 25.8469L64.3459 30.5632C64.6241 30.9444 64.7419 31.192 64.7858 31.3092C64.8259 31.4165 64.7824 31.3542 64.7948 31.1677C64.8009 31.0766 64.8193 30.9777 64.8516 30.8798C64.8837 30.7825 64.9223 30.7078 64.9536 30.6581C65.0137 30.5626 65.0185 30.6022 64.8341 30.7368L69.5504 37.1987ZM70.8078 25.8469C69.6522 24.2636 68.0196 22.6689 65.7647 22.1114L63.8444 29.8775C63.6481 29.8289 63.6036 29.7639 63.7108 29.8493C63.8251 29.9405 64.0443 30.15 64.3459 30.5632L70.8078 25.8469ZM65.8393 22.1306C63.5054 21.5056 61.3511 22.1813 59.6658 23.4113L64.3821 29.8733C64.5026 29.7853 64.4822 29.8299 64.3246 29.8666C64.246 29.885 64.15 29.8971 64.0439 29.8953C63.9378 29.8935 63.8442 29.8782 63.7699 29.8583L65.8393 22.1306ZM59.6658 23.4113C59.018 23.8841 58.3963 24.468 57.8825 25.1899L64.4002 29.8287C64.3632 29.8808 64.3361 29.9084 64.3302 29.9142C64.3247 29.9196 64.339 29.9047 64.3821 29.8733L59.6658 23.4113ZM58.0303 24.995C57.6414 25.4764 57.2724 26.0256 56.9802 26.6447L64.2149 30.0591C64.1961 30.099 64.1852 30.1148 64.1906 30.1063C64.196 30.0979 64.2147 30.0702 64.2524 30.0236L58.0303 24.995ZM57.3666 30.71L62.0358 37.1073L68.4977 32.391L63.8285 25.9937L57.3666 30.71ZM65.931 38.6936C66.512 38.5958 67.0742 38.4413 67.6148 38.2426L64.8552 30.7337C64.7398 30.7761 64.6564 30.7956 64.6024 30.8047L65.931 38.6936ZM67.6148 38.2426C68.3242 37.9819 68.9694 37.6228 69.5504 37.1987L64.8341 30.7368C64.8137 30.7517 64.8055 30.7557 64.8098 30.7534C64.8144 30.7509 64.8297 30.743 64.8552 30.7337L67.6148 38.2426Z" fill="#203152" mask="url(#path-1-outside-1_2001_552)"/>
</svg>
