<svg width="69" height="69" viewBox="0 0 69 69" fill="none" xmlns="http://www.w3.org/2000/svg">
<path fill-rule="evenodd" clip-rule="evenodd" d="M47.3764 41.1367C43.6015 44.9116 38.9891 46.7991 33.5392 46.7991C28.0893 46.7991 23.4769 44.9116 19.7019 41.1367C15.927 37.3618 14.0396 32.7494 14.0396 27.2995C14.0396 21.8496 15.927 17.2372 19.7019 13.4623C23.4769 9.68733 28.0893 7.79987 33.5392 7.79987C38.9891 7.79987 43.6015 9.68733 47.3764 13.4623C51.1513 17.2372 53.0388 21.8496 53.0388 27.2995C53.0388 32.7494 51.1513 37.3618 47.3764 41.1367Z" fill="#FAF4F2"/>
<path d="M16.8573 63.9588V42.5055C14.7367 40.2943 13.217 37.8714 12.2981 35.2368C11.3791 32.6021 10.9197 29.944 10.9197 27.2623C10.9197 20.864 13.0874 15.5007 17.4228 11.1724C21.7582 6.84407 27.1304 4.67992 33.5392 4.67992C39.9481 4.67992 45.3203 6.84407 49.6557 11.1724C53.9911 15.5007 56.1588 20.864 56.1588 27.2623C56.1588 29.944 55.6993 32.6021 54.7804 35.2368C53.8615 37.8714 52.3418 40.2943 50.2212 42.5055V63.9588L33.5392 58.3837L16.8573 63.9588ZM33.5392 45.6106C38.6758 45.6106 43.023 43.8345 46.5808 40.2825C50.1387 36.7305 51.9176 32.3904 51.9176 27.2623C51.9176 22.1342 50.1387 17.7942 46.5808 14.2422C43.023 10.6901 38.6758 8.91412 33.5392 8.91412C28.4027 8.91412 24.0555 10.6901 20.4976 14.2422C16.9398 17.7942 15.1608 22.1342 15.1608 27.2623C15.1608 32.3904 16.9398 36.7305 20.4976 40.2825C24.0555 43.8345 28.4027 45.6106 33.5392 45.6106ZM21.0985 58.0309L33.5392 54.1495L45.98 58.0309V45.9634C44.095 47.3278 42.0687 48.3157 39.901 48.9273C37.7333 49.539 35.6127 49.8448 33.5392 49.8448C31.4658 49.8448 29.3452 49.539 27.1775 48.9273C25.0098 48.3157 22.9834 47.3278 21.0985 45.9634V58.0309Z" fill="#203152"/>
<path d="M21.0985 58.0309L33.5392 54.1495L45.98 58.0309V45.9634C44.095 47.3278 42.0687 48.3157 39.901 48.9273C37.7333 49.539 35.6127 49.8448 33.5392 49.8448C31.4658 49.8448 29.3452 49.539 27.1775 48.9273C25.0098 48.3157 22.9834 47.3278 21.0985 45.9634V58.0309Z" fill="#203152"/>
<path d="M32.8379 17.2619C33.1226 16.6772 33.9558 16.6772 34.2405 17.2619L34.9418 16.9205L34.2405 17.2619L36.6434 22.1973C36.9943 22.918 37.6896 23.4089 38.4861 23.4984L44.0342 24.1216C44.7077 24.1972 44.9709 25.0367 44.4612 25.4833L40.4765 28.9743C39.8408 29.5312 39.5549 30.3876 39.7283 31.2147L40.8033 36.34C40.939 36.9871 40.2586 37.499 39.6745 37.1892L34.6355 34.517C33.9498 34.1534 33.1286 34.1534 32.4429 34.517L27.4039 37.1892C26.8198 37.499 26.1394 36.9871 26.2751 36.34L27.3501 31.2147C27.5235 30.3876 27.2375 29.5312 26.6019 28.9743L22.6172 25.4833C22.1075 25.0367 22.3706 24.1972 23.0442 24.1216L28.5923 23.4984C29.3888 23.4089 30.0841 22.918 30.4349 22.1973L32.8379 17.2619Z" fill="#FDBF1E" stroke="#203152" stroke-width="1.55997"/>
</svg>
