<svg width="36" height="36" viewBox="0 0 36 36" fill="none" xmlns="http://www.w3.org/2000/svg">
<g clip-path="url(#clip0_12_110)">
<path d="M35.8426 17.4373C35.7127 17.0063 35.4812 16.6128 35.1676 16.2898C34.9283 16.0316 34.621 15.846 34.2811 15.7543C34.4476 16.0176 34.5984 16.3213 34.7109 16.6453C34.8369 16.9761 34.9179 17.3293 34.9426 17.6961C34.9805 18.013 34.9805 18.3332 34.9426 18.6501C34.8724 18.4152 34.7645 18.1933 34.6231 17.9931C34.3445 17.6165 33.9721 17.3194 33.5431 17.1313C33.0679 16.9173 32.5303 16.8867 32.0339 17.0454C31.5375 17.2041 31.1173 17.5409 30.8544 17.9908C30.7419 18.1753 30.6519 18.3756 30.5844 18.5893C27.9249 14.1613 23.1391 11.2296 17.6671 11.2296C17.3881 11.2296 17.1114 11.2363 16.8369 11.2521C15.1392 11.2553 13.4501 11.4922 11.8171 11.9563C11.6776 10.9798 10.3951 8.99984 4.50011 8.99984L6.30011 14.6473C5.16823 15.5623 4.21674 16.6801 3.49436 17.9436L0.00010545 17.9998C0.00010545 17.9998 -0.382394 26.9998 2.25011 26.9998H3.46511C4.29225 28.4019 5.39893 29.6189 6.71635 30.5751L6.75011 35.9998H9.18011C12.1276 35.9998 13.5001 35.9998 13.5001 34.3123V33.4348C15.7696 33.8554 18.0976 33.8493 20.3649 33.4168L20.2501 34.3123C20.2501 35.9998 21.6451 35.9998 24.6151 35.9998H27.0001V30.6223C29.1099 29.1596 30.6283 26.9918 31.2819 24.5091C31.4101 24.4483 31.5384 24.4551 31.6689 24.4551C31.7994 24.4551 31.9276 24.4483 32.0559 24.4326C32.6206 24.3291 33.1359 24.1086 33.5836 23.7958C34.1888 23.3677 34.6519 22.7682 34.9134 22.0746C34.9764 21.8653 35.0236 21.6448 35.0551 21.4176L35.0574 21.3951C35.5546 20.8056 35.8944 20.0676 36.0001 19.2553C36.0921 18.6347 36.0366 18.0011 35.8381 17.4058L35.8426 17.4373ZM7.89761 17.4373C8.34516 17.4373 8.77438 17.6151 9.09085 17.9316C9.40732 18.2481 9.58511 18.6773 9.58511 19.1248C9.58511 19.5724 9.40732 20.0016 9.09085 20.3181C8.77438 20.6345 8.34516 20.8123 7.89761 20.8123C7.45005 20.8123 7.02083 20.6345 6.70436 20.3181C6.38789 20.0016 6.21011 19.5724 6.21011 19.1248C6.21011 18.6773 6.38789 18.2481 6.70436 17.9316C7.02083 17.6151 7.45005 17.4373 7.89761 17.4373ZM13.2301 15.7498C12.976 15.8313 12.7013 15.8202 12.4546 15.7185C12.2079 15.6168 12.0052 15.431 11.8824 15.1941C11.8441 15.076 11.8313 14.9512 11.8448 14.8278C11.8583 14.7045 11.8979 14.5854 11.9608 14.4784C12.0238 14.3715 12.1087 14.2791 12.2099 14.2073C12.3112 14.1356 12.4266 14.0862 12.5484 14.0623C14.0282 13.7075 15.547 13.5412 17.0686 13.5673L17.2959 13.5651C18.8079 13.5651 20.2749 13.7451 21.6811 14.0871C21.9646 14.1411 22.2706 14.4966 22.2706 14.9241C22.2705 15.015 22.2561 15.1054 22.2279 15.1918C22.1491 15.3377 22.038 15.4636 21.903 15.56C21.7681 15.6563 21.6129 15.7205 21.4494 15.7476H21.1051C19.8482 15.4449 18.5595 15.2938 17.2666 15.2976H17.0664C15.7051 15.2976 14.3821 15.4618 13.1154 15.7723L13.2301 15.7498ZM32.8051 22.3423C32.5015 22.5632 32.1539 22.7159 31.7859 22.7901L31.5001 22.7923V21.8023C31.8714 22.0836 32.3416 22.2523 32.8501 22.2523H32.8974L32.8051 22.3423ZM32.9851 20.8123C32.776 20.8416 32.5629 20.8033 32.3771 20.7029C32.1913 20.6025 32.0425 20.4453 31.9524 20.2543C31.8493 20.0579 31.7956 19.8392 31.796 19.6173C31.7964 19.3954 31.8508 19.177 31.9546 18.9808C32.0616 18.8328 32.2191 18.729 32.3974 18.6892C32.5756 18.6494 32.7623 18.6763 32.9221 18.7648C33.126 18.8431 33.3014 18.9813 33.4251 19.1613C33.5488 19.3412 33.615 19.5545 33.6151 19.7728C33.6596 20.0848 33.6588 20.4038 33.6129 20.7156C33.4039 20.7559 33.191 20.7725 32.9784 20.7651L32.9851 20.8123ZM18.0001 6.74984H15.7501V6.36734H16.3126V3.91484H15.7501L16.9876 2.67734H17.4376V6.36734H18.0001V6.74984Z" fill="#203152"/>
<path d="M16.875 1.6875C17.3184 1.68765 17.7573 1.77512 18.1669 1.94492C18.5765 2.11473 18.9486 2.36353 19.262 2.67714C19.5753 2.99075 19.8239 3.36301 19.9934 3.77268C20.163 4.18234 20.2501 4.62139 20.25 5.06475C20.2499 5.50811 20.1624 5.9471 19.9926 6.35665C19.8228 6.76621 19.574 7.1383 19.2604 7.4517C18.9468 7.7651 18.5745 8.01366 18.1648 8.18319C17.7552 8.35272 17.3161 8.4399 16.8728 8.43975C15.9773 8.43945 15.1187 8.08347 14.4858 7.45011C13.8529 6.81675 13.4975 5.9579 13.4978 5.0625C13.498 4.1671 13.854 3.30848 14.4874 2.67555C15.1207 2.04261 15.9796 1.6872 16.875 1.6875ZM16.875 0C15.5323 0 14.2447 0.533369 13.2953 1.48277C12.3459 2.43217 11.8125 3.71984 11.8125 5.0625C11.8125 6.40516 12.3459 7.69283 13.2953 8.64223C14.2447 9.59163 15.5323 10.125 16.875 10.125C18.2177 10.125 19.5053 9.59163 20.4547 8.64223C21.4041 7.69283 21.9375 6.40516 21.9375 5.0625C21.9375 3.71984 21.4041 2.43217 20.4547 1.48277C19.5053 0.533369 18.2177 0 16.875 0Z" fill="#203152"/>
</g>
<defs>
<clipPath id="clip0_12_110">
<rect width="36" height="36" fill="white"/>
</clipPath>
</defs>
</svg>
