<svg width="36" height="36" viewBox="0 0 36 36" fill="none" xmlns="http://www.w3.org/2000/svg">
<g clip-path="url(#clip0_12_115)">
<path d="M18 0C8.05887 0 0 8.05887 0 18C0 27.9411 8.05887 36 18 36C27.9411 36 36 27.9411 36 18C36 8.05887 27.9411 0 18 0ZM18 6.09741C22.9555 6.09741 26.9736 10.1155 26.9736 15.071C26.9736 16.5721 26.5623 18.5538 25.7167 19.6743L18 29.9026L10.2832 19.6743C9.35232 18.4406 9.02634 16.7284 9.02634 15.0711C9.02637 10.1155 13.0444 6.09741 18 6.09741ZM18 11.2961C15.9149 11.2961 14.2251 12.986 14.2251 15.071C14.2251 17.1561 15.9149 18.8459 18 18.8459C20.0851 18.8459 21.7749 17.1561 21.7749 15.071C21.7749 12.986 20.0851 11.2961 18 11.2961Z" fill="#203152"/>
</g>
<defs>
<clipPath id="clip0_12_115">
<rect width="36" height="36" fill="white"/>
</clipPath>
</defs>
</svg>
