<svg width="36" height="36" viewBox="0 0 36 36" fill="none" xmlns="http://www.w3.org/2000/svg">
<path d="M28.5 21C30.735 18.81 33 16.185 33 12.75C33 10.562 32.1308 8.46354 30.5836 6.91637C29.0365 5.36919 26.938 4.5 24.75 4.5C22.11 4.5 20.25 5.25 18 7.5C15.75 5.25 13.89 4.5 11.25 4.5C9.06196 4.5 6.96354 5.36919 5.41637 6.91637C3.86919 8.46354 3 10.562 3 12.75C3 16.2 5.25 18.825 7.5 21L18 31.5L28.5 21Z" stroke="#203152" stroke-width="3.16667" stroke-linecap="round" stroke-linejoin="round"/>
<path d="M17.9999 7.5L13.5599 11.94C13.2551 12.2426 13.0133 12.6024 12.8482 12.9989C12.6831 13.3953 12.5981 13.8206 12.5981 14.25C12.5981 14.6794 12.6831 15.1047 12.8482 15.5011C13.0133 15.8976 13.2551 16.2574 13.5599 16.56C14.7899 17.79 16.7549 17.835 18.0599 16.665L21.1649 13.815C21.9432 13.1088 22.9565 12.7176 24.0074 12.7176C25.0583 12.7176 26.0716 13.1088 26.8499 13.815L31.2899 17.805M26.9999 22.5L23.9999 19.5M22.4999 27L19.4999 24" stroke="#203152" stroke-width="3.16667" stroke-linecap="round" stroke-linejoin="round"/>
</svg>
