<svg width="36" height="36" viewBox="0 0 36 36" fill="none" xmlns="http://www.w3.org/2000/svg">
<path d="M9.18745 18.2249C9.83745 16.5749 10.619 14.9874 11.532 13.4624C12.445 11.9374 13.476 10.4999 14.625 9.14993L12.675 8.73742C12.175 8.63742 11.6875 8.66243 11.2125 8.81243C10.7375 8.96243 10.325 9.21243 9.97495 9.56243L5.24995 14.2874C4.87495 14.6624 4.73095 15.1124 4.81795 15.6374C4.90495 16.1624 5.19895 16.5249 5.69995 16.7249L9.18745 18.2249ZM31.2375 3.59993C28.5875 3.47493 26.069 3.98743 23.682 5.13743C21.295 6.28743 19.1635 7.79992 17.2875 9.67492C16.0875 10.8749 15.031 12.1749 14.118 13.5749C13.205 14.9749 12.412 16.4499 11.739 17.9999C11.614 18.3249 11.5515 18.6564 11.5515 18.9944C11.5515 19.3324 11.6765 19.6259 11.9265 19.8749L16.614 24.5624C16.864 24.8124 17.158 24.9374 17.496 24.9374C17.834 24.9374 18.165 24.8749 18.489 24.7499C20.039 24.0749 21.514 23.2809 22.914 22.3679C24.314 21.4549 25.614 20.3989 26.8139 19.1999C28.6889 17.3249 30.2015 15.1939 31.3515 12.8069C32.5015 10.4199 33.0135 7.90093 32.8875 5.24993C32.8875 5.04993 32.8375 4.84993 32.7375 4.64992C32.6375 4.44993 32.5125 4.27493 32.3625 4.12493C32.2125 3.97493 32.0375 3.84993 31.8375 3.74993C31.6375 3.64993 31.4375 3.59993 31.2375 3.59993ZM21.7125 14.7749C21.1375 14.1999 20.85 13.4939 20.85 12.6569C20.85 11.8199 21.1375 11.1134 21.7125 10.5374C22.2875 9.96243 22.9939 9.67492 23.832 9.67492C24.67 9.67492 25.3759 9.96243 25.9499 10.5374C26.525 11.1124 26.8125 11.8189 26.8125 12.6569C26.8125 13.4949 26.525 14.2009 25.9499 14.7749C25.375 15.3499 24.669 15.6374 23.832 15.6374C22.9949 15.6374 22.2885 15.3499 21.7125 14.7749ZM18.2625 27.2999L19.7625 30.7874C19.9625 31.2874 20.325 31.5874 20.85 31.6874C21.375 31.7874 21.825 31.6499 22.2 31.2749L26.925 26.5499C27.275 26.1999 27.525 25.7814 27.675 25.2944C27.825 24.8074 27.85 24.3134 27.75 23.8124L27.375 21.8624C26 23.0124 24.5564 24.0439 23.0445 24.9569C21.5325 25.8699 19.9385 26.6509 18.2625 27.2999ZM6.07495 24.0749C6.94995 23.1999 8.01245 22.7559 9.26245 22.7429C10.5125 22.7299 11.575 23.1614 12.45 24.0374C13.325 24.9124 13.7625 25.9749 13.7625 27.2249C13.7625 28.4749 13.325 29.5374 12.45 30.4124C11.25 31.6124 9.83095 32.3249 8.19295 32.5499C6.55495 32.7749 4.91145 32.9999 3.26245 33.2249C3.48745 31.5749 3.71895 29.9314 3.95695 28.2944C4.19495 26.6574 4.90095 25.2509 6.07495 24.0749Z" fill="#203152"/>
</svg>
