<svg width="37" height="36" viewBox="0 0 37 36" fill="none" xmlns="http://www.w3.org/2000/svg">
<path d="M24.6111 2.87964H11.3889C9.82465 2.87964 8.54965 4.16771 8.60868 5.72758C8.62049 6.04073 8.63229 6.35389 8.65 6.66114H2.41667C1.6316 6.66114 1 7.29335 1 8.0792C1 13.5505 2.97743 17.3557 5.63368 19.9377C8.24861 22.4843 11.4361 23.7665 13.7854 24.4164C15.1667 24.8005 16.1111 25.9527 16.1111 27.1108C16.1111 28.3457 15.1076 29.3501 13.874 29.3501H12.3333C11.2885 29.3501 10.4444 30.195 10.4444 31.2409C10.4444 32.2867 11.2885 33.1316 12.3333 33.1316H23.6667C24.7115 33.1316 25.5556 32.2867 25.5556 31.2409C25.5556 30.195 24.7115 29.3501 23.6667 29.3501H22.126C20.8924 29.3501 19.8889 28.3457 19.8889 27.1108C19.8889 25.9527 20.8274 24.7946 22.2146 24.4164C24.5698 23.7665 27.7573 22.4843 30.3722 19.9377C33.0226 17.3557 35 13.5505 35 8.0792C35 7.29335 34.3684 6.66114 33.5833 6.66114H27.35C27.3677 6.35389 27.3795 6.04664 27.3913 5.72758C27.4503 4.16771 26.1753 2.87964 24.6111 2.87964ZM3.89236 9.49726H8.8684C9.40556 14.8209 10.592 18.3779 11.9319 20.759C10.4622 20.1091 8.93333 19.1933 7.61111 17.9052C5.72222 16.0676 4.1875 13.4147 3.89236 9.49726ZM28.3948 17.9052C27.0726 19.1933 25.5437 20.1091 24.074 20.759C25.4139 18.3779 26.6003 14.8209 27.1375 9.49726H32.1194C31.8184 13.4147 30.2837 16.0676 28.4007 17.9052H28.3948Z" fill="#203152"/>
<path d="M3.5758 8.32401H3.89236H8.8684H9.13388L9.16053 8.58814C9.69479 13.8831 10.8727 17.3984 12.1878 19.7354L12.621 20.5051L11.8132 20.1479C10.32 19.4876 8.75944 18.5541 7.40638 17.236L3.5758 8.32401ZM3.5758 8.32401L3.59958 8.63968M3.5758 8.32401L3.59958 8.63968M3.59958 8.63968C3.90029 12.631 5.46798 15.3502 7.4063 17.2359L3.59958 8.63968ZM8.90208 4.83688L8.90208 4.83684C8.84954 3.44844 9.98604 2.29361 11.3889 2.29361H24.6111C26.014 2.29361 27.1505 3.44844 27.0979 4.83684L27.0979 4.83708C27.0861 5.15627 27.0744 5.46074 27.0569 5.7646L27.039 6.07511H27.35H33.5833C34.206 6.07511 34.7064 6.5756 34.7064 7.19956C34.7064 12.5918 32.7609 16.321 30.1674 18.8478C27.6012 21.3469 24.4658 22.611 22.1365 23.2538C20.6469 23.6602 19.5953 24.9168 19.5953 26.2311C19.5953 27.6279 20.7299 28.7641 22.126 28.7641H23.6667C24.549 28.7641 25.2619 29.4773 25.2619 30.3612C25.2619 31.2452 24.549 31.9584 23.6667 31.9584H12.3333C11.451 31.9584 10.7381 31.2452 10.7381 30.3612C10.7381 29.4773 11.451 28.7641 12.3333 28.7641H13.874C15.2701 28.7641 16.4047 27.6279 16.4047 26.2311C16.4047 24.9152 15.3455 23.6658 13.8641 23.2539L13.8637 23.2538C11.5402 22.611 8.40477 21.3469 5.83853 18.8478L5.83833 18.8476C3.23908 16.3209 1.29361 12.5918 1.29361 7.19956C1.29361 6.5756 1.79403 6.07511 2.41667 6.07511H8.65H8.96102L8.94313 5.7646C8.92561 5.46077 8.91391 5.15056 8.90208 4.83688ZM23.8181 19.7354L23.3849 20.5051L24.1927 20.1479C25.6543 19.5016 27.1805 18.5935 28.5134 17.3192H28.5202L28.6058 17.2357C30.5379 15.3501 32.1055 12.6312 32.4122 8.64012L32.4365 8.32401H32.1194H27.1375H26.872L26.8454 8.58814C26.3111 13.8831 25.1332 17.3984 23.8181 19.7354Z" fill="url(#paint0_linear_147_2029)" stroke="#203152" stroke-width="0.587224"/>
<defs>
<linearGradient id="paint0_linear_147_2029" x1="7.16952" y1="2" x2="25.9408" y2="30.7119" gradientUnits="userSpaceOnUse">
<stop stop-color="#F9F9F9"/>
<stop offset="1" stop-color="#98938E"/>
</linearGradient>
</defs>
</svg>
