<svg width="127" height="113" viewBox="0 0 127 113" fill="none" xmlns="http://www.w3.org/2000/svg">
<g filter="url(#filter0_d_59_558)">
<path d="M86.3498 4.91315H41.2556C35.9208 4.91315 31.5724 9.3061 31.7738 14.626C31.814 15.694 31.8543 16.762 31.9147 17.8099H10.656C7.97852 17.8099 5.82446 19.9661 5.82446 22.6462C5.82446 41.3061 12.5685 54.2835 21.6276 63.0895C30.5457 71.7747 41.4167 76.1475 49.429 78.3641C54.1397 79.6739 57.3607 83.6034 57.3607 87.553C57.3607 91.7646 53.9384 95.1903 49.7309 95.1903H44.4766C40.9134 95.1903 38.0346 98.0719 38.0346 101.639C38.0346 105.205 40.9134 108.087 44.4766 108.087H83.1288C86.6921 108.087 89.5708 105.205 89.5708 101.639C89.5708 98.0719 86.6921 95.1903 83.1288 95.1903H77.8745C73.6671 95.1903 70.2448 91.7646 70.2448 87.553C70.2448 83.6034 73.4456 79.6538 78.1765 78.3641C86.2089 76.1475 97.0798 71.7747 105.998 63.0895C115.037 54.2835 121.781 41.3061 121.781 22.6462C121.781 19.9661 119.627 17.8099 116.949 17.8099H95.6908C95.7512 16.762 95.7914 15.7142 95.8317 14.626C96.033 9.3061 91.6846 4.91315 86.3498 4.91315ZM15.6888 27.4824H32.6595C34.4915 45.6386 38.5379 57.7696 43.1077 65.8905C38.095 63.6739 32.881 60.5505 28.3716 56.1575C21.9295 49.8905 16.6954 40.8427 15.6888 27.4824ZM99.254 56.1575C94.7446 60.5505 89.5306 63.6739 84.5179 65.8905C89.0877 57.7696 93.1341 45.6386 94.966 27.4824H111.957C110.93 40.8427 105.696 49.8905 99.2741 56.1575H99.254Z" fill="url(#paint0_linear_59_558)"/>
<path d="M32.6127 14.5944L32.6127 14.5943C32.43 9.76467 36.3823 5.75272 41.2556 5.75272H86.3498C91.2232 5.75272 95.1755 9.76467 94.9927 14.5943L94.9927 14.595C94.9524 15.6835 94.9124 16.7234 94.8526 17.7616L94.8014 18.6495H95.6908H116.949C119.162 18.6495 120.941 20.429 120.941 22.6462C120.941 41.0798 114.289 53.8402 105.412 62.4881C96.6334 71.0376 85.9114 75.3586 77.9532 77.5548C72.9294 78.9254 69.4052 83.1566 69.4052 87.553C69.4052 92.2275 73.2026 96.0299 77.8745 96.0299H83.1288C86.2276 96.0299 88.7313 98.5349 88.7313 101.639C88.7313 104.743 86.2276 107.247 83.1288 107.247H44.4766C41.3779 107.247 38.8742 104.743 38.8742 101.639C38.8742 98.5349 41.3779 96.0299 44.4766 96.0299H49.7309C54.4028 96.0299 58.2003 92.2275 58.2003 87.553C58.2003 83.1521 54.651 78.9447 49.6539 77.5552L49.6528 77.5549C41.7143 75.3587 30.9923 71.0376 22.2133 62.4881L22.2128 62.4875C13.3166 53.8399 6.66404 41.0798 6.66404 22.6462C6.66404 20.429 8.44298 18.6495 10.656 18.6495H31.9147H32.804L32.7529 17.7616C32.693 16.7235 32.6531 15.6639 32.6127 14.5944ZM15.6888 26.6429H14.7836L14.8516 27.5455C15.8741 41.1174 21.2027 50.3547 27.7861 56.7593C32.3837 61.2381 37.6884 64.4121 42.7682 66.6584L45.0779 67.6798L43.8394 65.4788C39.3406 57.4841 35.3185 45.4723 33.4949 27.3982L33.4187 26.6429H32.6595H15.6888ZM83.7862 65.4788L82.5477 67.6798L84.8574 66.6584C89.8468 64.4521 95.0532 61.3507 99.5934 56.9971H99.6159L99.8605 56.7584C106.423 50.3542 111.751 41.1178 112.794 27.5468L112.863 26.6429H111.957H94.966H94.2069L94.1307 27.3982C92.307 45.4723 88.285 57.4841 83.7862 65.4788Z" stroke="#203152" stroke-width="1.67915"/>
</g>
<defs>
<filter id="filter0_d_59_558" x="5.82446" y="4.91315" width="115.957" height="107.174" filterUnits="userSpaceOnUse" color-interpolation-filters="sRGB">
<feFlood flood-opacity="0" result="BackgroundImageFix"/>
<feColorMatrix in="SourceAlpha" type="matrix" values="0 0 0 0 0 0 0 0 0 0 0 0 0 0 0 0 0 0 127 0" result="hardAlpha"/>
<feOffset dy="4"/>
<feComposite in2="hardAlpha" operator="out"/>
<feColorMatrix type="matrix" values="0 0 0 0 0.12549 0 0 0 0 0.192157 0 0 0 0 0.321569 0 0 0 1 0"/>
<feBlend mode="normal" in2="BackgroundImageFix" result="effect1_dropShadow_59_558"/>
<feBlend mode="normal" in="SourceGraphic" in2="effect1_dropShadow_59_558" result="shape"/>
</filter>
<linearGradient id="paint0_linear_59_558" x1="26.8655" y1="4.91315" x2="90.8848" y2="102.835" gradientUnits="userSpaceOnUse">
<stop stop-color="#F9F9F9"/>
<stop offset="1" stop-color="#98938E"/>
</linearGradient>
</defs>
</svg>
