<svg width="26" height="26" viewBox="0 0 26 26" fill="none" xmlns="http://www.w3.org/2000/svg">
<g filter="url(#filter0_d_1_1527)">
<path d="M18.094 0H8.04404C6.8551 0 5.88599 1.01883 5.93086 2.25264C5.93983 2.50034 5.94881 2.74804 5.96227 2.99106H1.22443C0.627709 2.99106 0.147644 3.49113 0.147644 4.11271C0.147644 8.4404 1.65065 11.4502 3.66962 13.4925C5.65718 15.5068 8.07994 16.5209 9.8656 17.035C10.9155 17.3388 11.6333 18.2501 11.6333 19.1662C11.6333 20.1429 10.8706 20.9374 9.9329 20.9374H8.7619C7.96777 20.9374 7.32619 21.6057 7.32619 22.433C7.32619 23.2602 7.96777 23.9285 8.7619 23.9285H17.3762C18.1703 23.9285 18.8119 23.2602 18.8119 22.433C18.8119 21.6057 18.1703 20.9374 17.3762 20.9374H16.2052C15.2675 20.9374 14.5047 20.1429 14.5047 19.1662C14.5047 18.2501 15.2181 17.3341 16.2725 17.035C18.0626 16.5209 20.4854 15.5068 22.4729 13.4925C24.4874 11.4502 25.9904 8.4404 25.9904 4.11271C25.9904 3.49113 25.5103 2.99106 24.9136 2.99106H20.1758C20.1892 2.74804 20.1982 2.50501 20.2072 2.25264C20.2521 1.01883 19.283 0 18.094 0ZM2.34607 5.23436H6.12827C6.53655 9.44521 7.43835 12.2587 8.45681 14.1421C7.33965 13.628 6.17762 12.9036 5.17263 11.8848C3.73692 10.4313 2.5704 8.33291 2.34607 5.23436ZM20.9699 11.8848C19.9649 12.9036 18.8029 13.628 17.6857 14.1421C18.7042 12.2587 19.606 9.44521 20.0143 5.23436H23.801C23.5721 8.33291 22.4056 10.4313 20.9744 11.8848H20.9699Z" fill="url(#paint0_linear_1_1527)"/>
<path d="M6.12103 2.24575L6.12103 2.24573C6.07993 1.11539 6.96712 0.190297 8.04404 0.190297H18.094C19.1709 0.190297 20.0581 1.11539 20.017 2.24573L20.017 2.24588C20.008 2.49833 19.9991 2.73962 19.9858 2.98054L19.9747 3.18136H20.1758H24.9136C25.398 3.18136 25.8001 3.58883 25.8001 4.11271C25.8001 8.39154 24.316 11.3529 22.3375 13.3588C20.3814 15.3412 17.9929 16.3429 16.2205 16.8519C15.0956 17.1711 14.3144 18.1538 14.3144 19.1662C14.3144 20.2406 15.1551 21.1277 16.2052 21.1277H17.3762C18.0579 21.1277 18.6216 21.7034 18.6216 22.433C18.6216 23.1625 18.0579 23.7382 17.3762 23.7382H8.7619C8.08012 23.7382 7.51649 23.1625 7.51649 22.433C7.51649 21.7034 8.08012 21.1277 8.7619 21.1277H9.9329C10.9829 21.1277 11.8236 20.2406 11.8236 19.1662C11.8236 18.1529 11.0371 17.1759 9.91849 16.8522L9.91825 16.8522C8.15019 16.3431 5.7614 15.3415 3.80507 13.3588L3.80495 13.3587C1.82206 11.3529 0.337941 8.39155 0.337941 4.11271C0.337941 3.58883 0.740054 3.18136 1.22443 3.18136H5.96227H6.16339L6.15227 2.98054C6.13893 2.73964 6.13002 2.49378 6.12103 2.24575ZM2.34607 5.04406H2.1415L2.15627 5.2481C2.38392 8.39243 3.57009 10.5332 5.03715 12.0184C6.06186 13.0572 7.24445 13.7937 8.37726 14.315L8.89561 14.5535L8.6242 14.0516C7.62095 12.1963 6.72423 9.40906 6.31768 5.21599L6.30101 5.04406H6.12827H2.34607ZM17.5183 14.0516L17.2469 14.5535L17.7653 14.315C18.8774 13.8032 20.0375 13.0841 21.049 12.0751H21.0541L21.11 12.0183C22.5724 10.5332 23.7585 8.39258 23.9907 5.24837L24.0058 5.04406H23.801H20.0143H19.8415L19.8249 5.21599C19.4183 9.40906 18.5216 12.1963 17.5183 14.0516Z" stroke="#203152" stroke-width="0.380593"/>
</g>
<defs>
<filter id="filter0_d_1_1527" x="0.147644" y="0" width="25.8428" height="24.8351" filterUnits="userSpaceOnUse" color-interpolation-filters="sRGB">
<feFlood flood-opacity="0" result="BackgroundImageFix"/>
<feColorMatrix in="SourceAlpha" type="matrix" values="0 0 0 0 0 0 0 0 0 0 0 0 0 0 0 0 0 0 127 0" result="hardAlpha"/>
<feOffset dy="0.906634"/>
<feComposite in2="hardAlpha" operator="out"/>
<feColorMatrix type="matrix" values="0 0 0 0 0.12549 0 0 0 0 0.192157 0 0 0 0 0.321569 0 0 0 1 0"/>
<feBlend mode="normal" in2="BackgroundImageFix" result="effect1_dropShadow_1_1527"/>
<feBlend mode="normal" in="SourceGraphic" in2="effect1_dropShadow_1_1527" result="shape"/>
</filter>
<linearGradient id="paint0_linear_1_1527" x1="4.83698" y1="4.6425e-07" x2="19.9136" y2="22.16" gradientUnits="userSpaceOnUse">
<stop stop-color="#F9F9F9"/>
<stop offset="1" stop-color="#98938E"/>
</linearGradient>
</defs>
</svg>
