<svg width="70" height="70" viewBox="0 0 70 70" fill="none" xmlns="http://www.w3.org/2000/svg">
<g clip-path="url(#clip0)">
<path d="M67.162 41.1204C66.9111 41.1204 66.6705 41.0208 66.4931 40.8434C66.3157 40.666 66.2161 40.4254 66.2161 40.1745V37.4218C66.2161 37.1709 66.3157 36.9303 66.4931 36.7529C66.6705 36.5755 66.9111 36.4758 67.162 36.4758C67.4129 36.4758 67.6535 36.5755 67.8309 36.7529C68.0083 36.9303 68.108 37.1709 68.108 37.4218V40.1745C68.108 40.4254 68.0083 40.666 67.8309 40.8434C67.6535 41.0208 67.4129 41.1204 67.162 41.1204Z" fill="#F4522F"/>
<path d="M65.2702 68.1081H4.72968C3.97704 68.1081 3.25523 67.8091 2.72303 67.2769C2.19083 66.7447 1.89185 66.0229 1.89185 65.2702V4.72968C1.89185 3.97704 2.19083 3.25523 2.72303 2.72303C3.25523 2.19083 3.97704 1.89185 4.72968 1.89185H65.2702C66.0229 1.89185 66.7447 2.19083 67.2769 2.72303C67.8091 3.25523 68.1081 3.97704 68.1081 4.72968V30.8C68.1081 31.0508 68.0084 31.2914 67.831 31.4688C67.6536 31.6462 67.413 31.7459 67.1621 31.7459C66.9112 31.7459 66.6706 31.6462 66.4932 31.4688C66.3158 31.2914 66.2162 31.0508 66.2162 30.8V4.72968C66.2162 4.4788 66.1165 4.2382 65.9391 4.0608C65.7617 3.8834 65.5211 3.78374 65.2702 3.78374H4.72968C4.4788 3.78374 4.2382 3.8834 4.0608 4.0608C3.8834 4.2382 3.78374 4.4788 3.78374 4.72968V65.2702C3.78374 65.5211 3.8834 65.7617 4.0608 65.9391C4.2382 66.1165 4.4788 66.2162 4.72968 66.2162H65.2702C65.5211 66.2162 65.7617 66.1165 65.9391 65.9391C66.1165 65.7617 66.2162 65.5211 66.2162 65.2702V56.227C66.2162 55.9761 66.3158 55.7355 66.4932 55.5581C66.6706 55.3807 66.9112 55.281 67.1621 55.281C67.413 55.281 67.6536 55.3807 67.831 55.5581C68.0084 55.7355 68.1081 55.9761 68.1081 56.227V65.2702C68.1081 66.0229 67.8091 66.7447 67.2769 67.2769C66.7447 67.8091 66.0229 68.1081 65.2702 68.1081Z" fill="#F4522F"/>
<path d="M67.162 50.5514C66.9111 50.5514 66.6705 50.4518 66.4931 50.2744C66.3157 50.097 66.2161 49.8564 66.2161 49.6055V46.796C66.2161 46.5452 66.3157 46.3046 66.4931 46.1272C66.6705 45.9498 66.9111 45.8501 67.162 45.8501C67.4129 45.8501 67.6535 45.9498 67.8309 46.1272C68.0083 46.3046 68.108 46.5452 68.108 46.796V49.6055C68.108 49.8564 68.0083 50.097 67.8309 50.2744C67.6535 50.4518 67.4129 50.5514 67.162 50.5514Z" fill="#F4522F"/>
<path d="M67.1621 18.9187H2.83779C2.58691 18.9187 2.34631 18.8191 2.16891 18.6417C1.99151 18.4643 1.89185 18.2237 1.89185 17.9728C1.89185 17.7219 1.99151 17.4813 2.16891 17.3039C2.34631 17.1265 2.58691 17.0269 2.83779 17.0269H67.1621C67.413 17.0269 67.6536 17.1265 67.831 17.3039C68.0084 17.4813 68.1081 17.7219 68.1081 17.9728C68.1081 18.2237 68.0084 18.4643 67.831 18.6417C67.6536 18.8191 67.413 18.9187 67.1621 18.9187Z" fill="#F4522F"/>
<path d="M10.7516 14.0475C10.0313 14.0475 9.32722 13.8339 8.72831 13.4337C8.1294 13.0335 7.66261 12.4647 7.38697 11.7993C7.11132 11.1338 7.0392 10.4015 7.17972 9.69507C7.32024 8.98861 7.6671 8.33969 8.17643 7.83036C8.68576 7.32103 9.33468 6.97417 10.0411 6.83365C10.7476 6.69313 11.4799 6.76525 12.1453 7.0409C12.8108 7.31654 13.3796 7.78333 13.7798 8.38224C14.1799 8.98114 14.3935 9.68527 14.3935 10.4056C14.3928 11.3712 14.0088 12.2971 13.326 12.9799C12.6432 13.6628 11.7173 14.0467 10.7516 14.0475ZM10.7516 8.65556C10.4055 8.65556 10.0672 8.7582 9.77939 8.95049C9.4916 9.14279 9.2673 9.4161 9.13485 9.73587C9.00239 10.0556 8.96774 10.4075 9.03526 10.747C9.10279 11.0864 9.26946 11.3983 9.5142 11.643C9.75894 11.8877 10.0708 12.0544 10.4102 12.1219C10.7497 12.1895 11.1016 12.1548 11.4213 12.0224C11.7411 11.8899 12.0144 11.6656 12.2067 11.3778C12.399 11.09 12.5016 10.7517 12.5016 10.4056C12.5011 9.94159 12.3166 9.49676 11.9885 9.16868C11.6604 8.8406 11.2156 8.65607 10.7516 8.65556Z" fill="#F4522F"/>
<path d="M20.581 14.0475C19.8606 14.0476 19.1564 13.8342 18.5574 13.4341C17.9583 13.0341 17.4914 12.4654 17.2156 11.7999C16.9398 11.1345 16.8676 10.4022 17.008 9.69565C17.1484 8.98913 17.4952 8.34011 18.0045 7.83069C18.5138 7.32127 19.1627 6.97432 19.8692 6.83372C20.5756 6.69312 21.308 6.76519 21.9735 7.04081C22.639 7.31642 23.2078 7.78321 23.6081 8.38214C24.0083 8.98107 24.2219 9.68523 24.2219 10.4056C24.2206 11.3709 23.8367 12.2964 23.1542 12.9791C22.4717 13.6617 21.5463 14.046 20.581 14.0475ZM20.581 8.65556C20.2348 8.65538 19.8964 8.75785 19.6084 8.95003C19.3205 9.14221 19.0961 9.41546 18.9635 9.73521C18.8309 10.055 18.7961 10.4069 18.8635 10.7464C18.9309 11.0859 19.0975 11.3978 19.3422 11.6427C19.5869 11.8875 19.8988 12.0543 20.2382 12.1219C20.5777 12.1895 20.9297 12.1549 21.2495 12.0224C21.5693 11.89 21.8427 11.6657 22.035 11.3779C22.2273 11.0901 22.33 10.7517 22.33 10.4056C22.3295 9.94175 22.1451 9.49707 21.8172 9.16901C21.4893 8.84096 21.0448 8.65632 20.581 8.65556Z" fill="#F4522F"/>
<path d="M30.4083 14.0475C29.6881 14.0467 28.9844 13.8325 28.386 13.4318C27.7875 13.0312 27.3213 12.4622 27.0463 11.7966C26.7712 11.1311 26.6996 10.399 26.8406 9.69275C26.9815 8.98654 27.3287 8.33797 27.8382 7.82902C28.3476 7.32007 28.9966 6.97359 29.7029 6.83338C30.4093 6.69316 31.1414 6.7655 31.8066 7.04126C32.4719 7.31701 33.0404 7.78381 33.4404 8.38263C33.8404 8.98146 34.0539 9.68543 34.0539 10.4056C34.0532 11.3719 33.6687 12.2983 32.9851 12.9813C32.3014 13.6642 31.3746 14.0477 30.4083 14.0475ZM30.4083 8.65556C30.0623 8.65631 29.7243 8.75958 29.437 8.95233C29.1498 9.14508 28.926 9.41865 28.7942 9.73849C28.6623 10.0583 28.6282 10.4101 28.6961 10.7493C28.7641 11.0885 28.931 11.4 29.1759 11.6443C29.4208 11.8887 29.7327 12.055 30.072 12.1222C30.4114 12.1894 30.7631 12.1546 31.0826 12.022C31.4022 11.8894 31.6752 11.6651 31.8674 11.3774C32.0595 11.0897 32.162 10.7515 32.162 10.4056C32.1618 10.1755 32.1162 9.94774 32.028 9.73529C31.9397 9.52283 31.8104 9.32985 31.6476 9.16734C31.4847 9.00484 31.2915 8.87601 31.0788 8.7882C30.8662 8.70038 30.6383 8.65532 30.4083 8.65556Z" fill="#F4522F"/>
<path d="M37.5606 60.5407H32.4393C32.2168 60.5407 32.0014 60.4623 31.8309 60.3192C31.6605 60.1761 31.546 59.9775 31.5075 59.7584L31.0752 57.2989C29.775 56.9528 28.5269 56.4343 27.3643 55.757L25.3144 57.1949C25.1321 57.3228 24.9106 57.3822 24.6888 57.3629C24.4669 57.3435 24.259 57.2465 24.1017 57.0889L20.4797 53.4659C20.3223 53.3085 20.2254 53.1005 20.2062 52.8787C20.187 52.6569 20.2467 52.4354 20.3747 52.2532L21.8125 50.2043C21.1351 49.0414 20.6165 47.793 20.2706 46.4924L17.8112 46.0601C17.5917 46.022 17.3926 45.9077 17.2492 45.7372C17.1057 45.5668 17.027 45.3512 17.027 45.1284V40.007C17.027 39.7845 17.1054 39.5691 17.2485 39.3987C17.3915 39.2283 17.5901 39.1138 17.8093 39.0753L20.2687 38.643C20.6146 37.3424 21.1332 36.094 21.8106 34.9311L20.3728 32.8822C20.2448 32.7 20.1851 32.4785 20.2043 32.2567C20.2235 32.0349 20.3204 31.8269 20.4778 31.6695L24.0998 28.0484C24.2572 27.8908 24.465 27.7938 24.6869 27.7744C24.9087 27.755 25.1302 27.8145 25.3125 27.9424L27.3624 29.3803C28.525 28.703 29.7731 28.1845 31.0733 27.8384L31.5056 25.3789C31.5438 25.1591 31.6584 24.9598 31.8293 24.8163C32.0001 24.6728 32.2162 24.5943 32.4393 24.5947H37.5606C37.7831 24.5947 37.9985 24.6731 38.169 24.8162C38.3394 24.9593 38.4539 25.1579 38.4924 25.377L38.9247 27.8365C40.2249 28.1826 41.473 28.7011 42.6356 29.3784L44.6855 27.9405C44.8678 27.8126 45.0893 27.7531 45.3111 27.7725C45.533 27.7919 45.7409 27.8889 45.8982 28.0465L49.5202 31.6676C49.6776 31.825 49.7745 32.033 49.7937 32.2548C49.8129 32.4766 49.7532 32.6981 49.6252 32.8803L48.1874 34.9292C48.8648 36.0921 49.3834 37.3405 49.7293 38.6411L52.1887 39.0734C52.4079 39.1119 52.6065 39.2264 52.7495 39.3968C52.8926 39.5672 52.9711 39.7826 52.971 40.0051V45.1265C52.9711 45.349 52.8926 45.5644 52.7495 45.7348C52.6065 45.9052 52.4079 46.0197 52.1887 46.0582L49.7293 46.4905C49.3834 47.7911 48.8648 49.0395 48.1874 50.2024L49.6252 52.2513C49.7532 52.4335 49.8129 52.655 49.7937 52.8768C49.7745 53.0986 49.6776 53.3066 49.5202 53.464L45.8982 57.0851C45.7409 57.2427 45.533 57.3397 45.3111 57.3591C45.0893 57.3785 44.8678 57.319 44.6855 57.1911L42.6356 55.7532C41.473 56.4305 40.2249 56.949 38.9247 57.2951L38.4924 59.7546C38.4547 59.9744 38.3405 60.1739 38.17 60.3177C37.9995 60.4616 37.7837 60.5405 37.5606 60.5407ZM33.2339 58.6488H36.766L37.1444 56.5109C37.1459 56.2994 37.2191 56.0947 37.3521 55.9302C37.4851 55.7657 37.67 55.6513 37.8766 55.6057C39.4148 55.2671 40.8803 54.6569 42.2043 53.8036C42.4012 53.6771 42.638 53.628 42.869 53.6659C43.1 53.7038 43.3087 53.826 43.4548 54.0089L43.4681 54.0269L45.1235 55.1876L47.6208 52.6893L46.4081 50.962C46.2417 50.8164 46.133 50.6161 46.1016 50.3973C46.0702 50.1785 46.1182 49.9557 46.2368 49.7692C47.0888 48.4451 47.6974 46.9795 48.0341 45.4415C48.0804 45.2234 48.2028 45.0289 48.3794 44.8928C48.5561 44.7567 48.7754 44.688 48.9981 44.6989L51.0791 44.3338V40.8016L48.9413 40.4232C48.7298 40.4216 48.5252 40.3483 48.3607 40.2153C48.1963 40.0824 48.0818 39.8975 48.036 39.6911C47.6993 38.153 47.0907 36.6874 46.2387 35.3634C46.1123 35.1671 46.0629 34.9309 46.1001 34.7004C46.1373 34.4699 46.2584 34.2613 46.4402 34.1147L46.4582 34.1005L47.6208 32.4461L45.1216 29.9478L43.3952 31.1577C43.2502 31.3248 43.0501 31.4343 42.8311 31.4663C42.6122 31.4982 42.3891 31.4505 42.2024 31.3318C40.8785 30.4785 39.4129 29.8683 37.8747 29.5297C37.6575 29.4821 37.464 29.3595 37.3282 29.1834C37.1924 29.0073 37.123 28.7889 37.1321 28.5668L36.766 26.4866H33.2339L32.8555 28.6245C32.854 28.836 32.7808 29.0407 32.6478 29.2052C32.5148 29.3697 32.3299 29.4841 32.1233 29.5297C30.5851 29.8683 29.1196 30.4785 27.7956 31.3318C27.5987 31.4583 27.3619 31.5074 27.1309 31.4695C26.8999 31.4316 26.6912 31.3094 26.5451 31.1265L26.5318 31.1085L24.8783 29.9478L22.3791 32.4461L23.5918 34.1734C23.7582 34.319 23.8669 34.5193 23.8983 34.7381C23.9297 34.9569 23.8817 35.1797 23.7631 35.3662C22.9111 36.6903 22.3025 38.1559 21.9658 39.6939C21.9181 39.9113 21.7953 40.1049 21.619 40.2407C21.4427 40.3766 21.2242 40.4459 21.0018 40.4365L18.9208 40.8016V44.3338L21.0586 44.7122C21.2701 44.7138 21.4747 44.7871 21.6392 44.9201C21.8036 45.053 21.9181 45.2379 21.9639 45.4443C22.3006 46.9824 22.9092 48.4479 23.7612 49.772C23.8876 49.9683 23.937 50.2045 23.8998 50.435C23.8626 50.6655 23.7415 50.8741 23.5597 51.0207L23.5417 51.0349L22.3791 52.6893L24.8783 55.1876L26.6047 53.9777C26.75 53.8111 26.9501 53.7019 27.1689 53.67C27.3877 53.6381 27.6106 53.6855 27.7975 53.8036C29.1214 54.6569 30.587 55.2671 32.1252 55.6057C32.3424 55.6533 32.5359 55.7759 32.6717 55.952C32.8075 56.1281 32.8769 56.3464 32.8678 56.5686L33.2339 58.6488Z" fill="#F4522F"/>
<path d="M34.9999 52.0271C33.129 52.0271 31.3001 51.4723 29.7445 50.4329C28.1889 49.3935 26.9764 47.9161 26.2605 46.1876C25.5445 44.4591 25.3572 42.5571 25.7222 40.7222C26.0872 38.8872 26.9881 37.2017 28.311 35.8788C29.634 34.5558 31.3195 33.6549 33.1544 33.2899C34.9894 32.9249 36.8914 33.1123 38.6199 33.8282C40.3484 34.5442 41.8257 35.7566 42.8651 37.3122C43.9046 38.8678 44.4593 40.6967 44.4593 42.5676C44.4566 45.0756 43.4591 47.48 41.6857 49.2534C39.9123 51.0268 37.5078 52.0243 34.9999 52.0271ZM34.9999 35.0001C33.5032 35.0001 32.04 35.4439 30.7956 36.2754C29.5511 37.107 28.5811 38.2889 28.0084 39.6716C27.4356 41.0544 27.2857 42.576 27.5777 44.044C27.8697 45.512 28.5904 46.8604 29.6488 47.9187C30.7071 48.9771 32.0556 49.6978 33.5235 49.9898C34.9915 50.2818 36.5131 50.1319 37.8959 49.5592C39.2787 48.9864 40.4605 48.0164 41.2921 46.7719C42.1236 45.5275 42.5674 44.0644 42.5674 42.5676C42.5652 40.5613 41.7672 38.6377 40.3485 37.219C38.9298 35.8003 37.0062 35.0023 34.9999 35.0001Z" fill="#F4522F"/>
</g>
<defs>
<clipPath id="clip0">
<rect width="70" height="70" fill="white"/>
</clipPath>
</defs>
</svg>
